<svg width="24" height="25" viewBox="0 0 24 25" fill="none" xmlns="http://www.w3.org/2000/svg">
<path d="M11.2969 4.39062H12.7031C12.8281 4.39062 12.8906 4.45312 12.8906 4.57812V21.0781C12.8906 21.2031 12.8281 21.2656 12.7031 21.2656H11.2969C11.1719 21.2656 11.1094 21.2031 11.1094 21.0781V4.57812C11.1094 4.45312 11.1719 4.39062 11.2969 4.39062Z" fill="black"/>
<path d="M4.125 11.9375H19.875C20 11.9375 20.0625 12 20.0625 12.125V13.5312C20.0625 13.6562 20 13.7188 19.875 13.7188H4.125C4 13.7188 3.9375 13.6562 3.9375 13.5312V12.125C3.9375 12 4 11.9375 4.125 11.9375Z" fill="black"/>
</svg>
