<svg width="236" height="236" viewBox="0 0 236 236" fill="none" xmlns="http://www.w3.org/2000/svg">
<path d="M-3.66014e-07 162.582L0 170.956L8.37342 170.956L8.37342 162.582L-3.66014e-07 162.582Z" fill="black"/>
<path d="M-3.66014e-07 154.429L0 162.802L8.37342 162.802L8.37342 154.429L-3.66014e-07 154.429Z" fill="black"/>
<path d="M-3.66014e-07 130.057L0 138.43L8.37342 138.43L8.37342 130.057L-3.66014e-07 130.057Z" fill="black"/>
<path d="M-3.66015e-07 121.935L0 130.309L8.37342 130.309L8.37342 121.935L-3.66015e-07 121.935Z" fill="black"/>
<path d="M-3.66014e-07 105.667L0 114.04L8.37342 114.04L8.37342 105.667L-3.66014e-07 105.667Z" fill="black"/>
<path d="M-3.66014e-07 89.4195L0 97.793L8.37342 97.793L8.37342 89.4195L-3.66014e-07 89.4195Z" fill="black"/>
<path d="M-3.66014e-07 73.1622L0 81.5356L8.37342 81.5356L8.37342 73.1622L-3.66014e-07 73.1622Z" fill="black"/>
<path d="M-3.66015e-07 65.0221L0 73.3955L8.37342 73.3955L8.37342 65.0221L-3.66015e-07 65.0221Z" fill="black"/>
<path d="M8.12891 162.582L8.12891 170.956L16.5023 170.956L16.5023 162.582L8.12891 162.582Z" fill="black"/>
<path d="M8.13477 154.428L8.13477 162.801L16.5082 162.801L16.5082 154.428L8.13477 154.428Z" fill="black"/>
<path d="M8.13477 130.057L8.13477 138.43L16.5082 138.43L16.5082 130.057L8.13477 130.057Z" fill="black"/>
<path d="M8.13672 89.4195L8.13672 97.793L16.5101 97.793L16.5101 89.4195L8.13672 89.4195Z" fill="black"/>
<path d="M16.2539 162.582L16.2539 170.956L24.6273 170.956L24.6273 162.582L16.2539 162.582Z" fill="black"/>
<path d="M16.2539 154.428L16.2539 162.801L24.6273 162.801L24.6273 154.428L16.2539 154.428Z" fill="black"/>
<path d="M16.2559 146.316L16.2559 154.689L24.6293 154.689L24.6293 146.316L16.2559 146.316Z" fill="black"/>
<path d="M16.2559 130.057L16.2559 138.43L24.6293 138.43L24.6293 130.057L16.2559 130.057Z" fill="black"/>
<path d="M16.2539 105.667L16.2539 114.04L24.6273 114.04L24.6273 105.667L16.2539 105.667Z" fill="black"/>
<path d="M16.2539 81.275L16.2539 89.6484L24.6273 89.6484L24.6273 81.275L16.2539 81.275Z" fill="black"/>
<path d="M16.2559 73.1622L16.2559 81.5356L24.6293 81.5356L24.6293 73.1622L16.2559 73.1622Z" fill="black"/>
<path d="M24.3906 154.428L24.3906 162.801L32.7641 162.801L32.7641 154.428L24.3906 154.428Z" fill="black"/>
<path d="M24.3926 146.316L24.3926 154.689L32.766 154.689L32.766 146.316L24.3926 146.316Z" fill="black"/>
<path d="M24.3906 138.191L24.3906 146.564L32.7641 146.564L32.7641 138.191L24.3906 138.191Z" fill="black"/>
<path d="M24.3926 130.057L24.3926 138.43L32.766 138.43L32.766 130.057L24.3926 130.057Z" fill="black"/>
<path d="M24.3848 113.789L24.3848 122.163L32.7582 122.163L32.7582 113.789L24.3848 113.789Z" fill="black"/>
<path d="M24.3848 89.4195L24.3848 97.793L32.7582 97.793L32.7582 89.4195L24.3848 89.4195Z" fill="black"/>
<path d="M32.5176 154.428L32.5176 162.801L40.891 162.801L40.891 154.428L32.5176 154.428Z" fill="black"/>
<path d="M32.5176 138.191L32.5176 146.564L40.891 146.564L40.891 138.191L32.5176 138.191Z" fill="black"/>
<path d="M32.5195 113.789L32.5195 122.163L40.893 122.163L40.893 113.789L32.5195 113.789Z" fill="black"/>
<path d="M32.5176 97.5436L32.5176 105.917L40.891 105.917L40.891 97.5436L32.5176 97.5436Z" fill="black"/>
<path d="M32.5176 89.4195L32.5176 97.793L40.891 97.793L40.891 89.4195L32.5176 89.4195Z" fill="black"/>
<path d="M32.5176 81.275L32.5176 89.6484L40.891 89.6484L40.891 81.275L32.5176 81.275Z" fill="black"/>
<path d="M32.5176 73.1622L32.5176 81.5356L40.891 81.5356L40.891 73.1622L32.5176 73.1622Z" fill="black"/>
<path d="M40.6445 162.582L40.6445 170.956L49.018 170.956L49.018 162.582L40.6445 162.582Z" fill="black"/>
<path d="M40.6504 146.316L40.6504 154.689L49.0238 154.689L49.0238 146.316L40.6504 146.316Z" fill="black"/>
<path d="M40.6465 130.057L40.6465 138.43L49.0199 138.43L49.0199 130.057L40.6465 130.057Z" fill="black"/>
<path d="M40.6445 121.935L40.6445 130.309L49.018 130.309L49.018 121.935L40.6445 121.935Z" fill="black"/>
<path d="M40.6523 81.275L40.6523 89.6484L49.0258 89.6484L49.0258 81.275L40.6523 81.275Z" fill="black"/>
<path d="M48.7715 162.582L48.7715 170.956L57.1449 170.956L57.1449 162.582L48.7715 162.582Z" fill="black"/>
<path d="M48.7734 146.316L48.7734 154.689L57.1469 154.689L57.1469 146.316L48.7734 146.316Z" fill="black"/>
<path d="M48.7793 130.057L48.7793 138.43L57.1527 138.43L57.1527 130.057L48.7793 130.057Z" fill="black"/>
<path d="M48.7754 113.789L48.7754 122.163L57.1488 122.163L57.1488 113.789L48.7754 113.789Z" fill="black"/>
<path d="M48.7715 97.5436L48.7715 105.917L57.1449 105.917L57.1449 97.5436L48.7715 97.5436Z" fill="black"/>
<path d="M48.7754 81.275L48.7754 89.6484L57.1488 89.6484L57.1488 81.275L48.7754 81.275Z" fill="black"/>
<path d="M48.7754 65.0221L48.7754 73.3955L57.1488 73.3955L57.1488 65.0221L48.7754 65.0221Z" fill="black"/>
<path d="M56.9082 162.582L56.9082 170.956L65.2816 170.956L65.2816 162.582L56.9082 162.582Z" fill="black"/>
<path d="M56.9004 146.316L56.9004 154.689L65.2738 154.689L65.2738 146.316L56.9004 146.316Z" fill="black"/>
<path d="M56.9082 130.057L56.9082 138.43L65.2816 138.43L65.2816 130.057L56.9082 130.057Z" fill="black"/>
<path d="M56.9004 121.935L56.9004 130.309L65.2738 130.309L65.2738 121.935L56.9004 121.935Z" fill="black"/>
<path d="M56.9004 113.789L56.9004 122.163L65.2738 122.163L65.2738 113.789L56.9004 113.789Z" fill="black"/>
<path d="M56.9004 105.667L56.9004 114.04L65.2738 114.04L65.2738 105.667L56.9004 105.667Z" fill="black"/>
<path d="M56.9082 73.1622L56.9082 81.5356L65.2816 81.5356L65.2816 73.1622L56.9082 73.1622Z" fill="black"/>
<path d="M65.0371 211.344L65.0371 219.718L73.4105 219.718L73.4105 211.344L65.0371 211.344Z" fill="black"/>
<path d="M65.0352 203.232L65.0352 211.605L73.4086 211.605L73.4086 203.232L65.0352 203.232Z" fill="black"/>
<path d="M65.0332 195.088L65.0332 203.461L73.4066 203.461L73.4066 195.088L65.0332 195.088Z" fill="black"/>
<path d="M65.0352 178.826L65.0352 187.2L73.4086 187.2L73.4086 178.826L65.0352 178.826Z" fill="black"/>
<path d="M65.0352 162.582L65.0352 170.956L73.4086 170.956L73.4086 162.582L65.0352 162.582Z" fill="black"/>
<path d="M65.0371 121.935L65.0371 130.309L73.4105 130.309L73.4105 121.935L65.0371 121.935Z" fill="black"/>
<path d="M65.0371 105.667L65.0371 114.04L73.4105 114.04L73.4105 105.667L65.0371 105.667Z" fill="black"/>
<path d="M65.0371 81.275L65.0371 89.6484L73.4105 89.6484L73.4105 81.275L65.0371 81.275Z" fill="black"/>
<path d="M65.041 65.0221L65.041 73.3955L73.4144 73.3955L73.4144 65.0221L65.041 65.0221Z" fill="black"/>
<path d="M65.0371 56.8995L65.0371 65.2729L73.4105 65.2729L73.4105 56.8995L65.0371 56.8995Z" fill="black"/>
<path d="M65.0371 48.7652L65.0371 57.1387L73.4105 57.1387L73.4105 48.7652L65.0371 48.7652Z" fill="black"/>
<path d="M65.0352 40.6193L65.0352 48.9927L73.4086 48.9927L73.4086 40.6193L65.0352 40.6193Z" fill="black"/>
<path d="M65.0371 16.2501L65.0371 24.6235L73.4105 24.6235L73.4105 16.2501L65.0371 16.2501Z" fill="black"/>
<path d="M65.0352 8.12365L65.0352 16.4971L73.4086 16.4971L73.4086 8.12365L65.0352 8.12365Z" fill="black"/>
<path d="M65.0352 -0.000404358L65.0352 8.37305L73.4086 8.37305L73.4086 -0.000404724L65.0352 -0.000404358Z" fill="black"/>
<path d="M73.1641 211.344L73.1641 219.718L81.5375 219.718L81.5375 211.344L73.1641 211.344Z" fill="black"/>
<path d="M73.1621 195.088L73.1621 203.461L81.5355 203.461L81.5355 195.088L73.1621 195.088Z" fill="black"/>
<path d="M73.166 186.965L73.166 195.338L81.5394 195.338L81.5394 186.965L73.166 186.965Z" fill="black"/>
<path d="M73.1621 170.709L73.1621 179.082L81.5355 179.082L81.5355 170.709L73.1621 170.709Z" fill="black"/>
<path d="M73.1641 154.429L73.1641 162.802L81.5375 162.802L81.5375 154.429L73.1641 154.429Z" fill="black"/>
<path d="M73.1621 146.316L73.1621 154.689L81.5355 154.689L81.5355 146.316L73.1621 146.316Z" fill="black"/>
<path d="M73.1621 130.057L73.1621 138.43L81.5355 138.43L81.5355 130.057L73.1621 130.057Z" fill="black"/>
<path d="M73.166 121.935L73.166 130.309L81.5394 130.309L81.5394 121.935L73.166 121.935Z" fill="black"/>
<path d="M73.1621 113.789L73.1621 122.163L81.5355 122.163L81.5355 113.789L73.1621 113.789Z" fill="black"/>
<path d="M73.1641 89.4195L73.1641 97.793L81.5375 97.793L81.5375 89.4195L73.1641 89.4195Z" fill="black"/>
<path d="M73.1641 81.275L73.1641 89.6484L81.5375 89.6484L81.5375 81.275L73.1641 81.275Z" fill="black"/>
<path d="M73.1621 73.1622L73.1621 81.5356L81.5355 81.5356L81.5355 73.1622L73.1621 73.1622Z" fill="black"/>
<path d="M73.1621 65.0221L73.1621 73.3955L81.5355 73.3955L81.5355 65.0221L73.1621 65.0221Z" fill="black"/>
<path d="M73.1641 48.7652L73.1641 57.1387L81.5375 57.1387L81.5375 48.7652L73.1641 48.7652Z" fill="black"/>
<path d="M73.1641 40.6193L73.1641 48.9927L81.5375 48.9927L81.5375 40.6193L73.1641 40.6193Z" fill="black"/>
<path d="M73.166 32.5128L73.166 40.8862L81.5394 40.8862L81.5394 32.5128L73.166 32.5128Z" fill="black"/>
<path d="M73.1641 24.381L73.1641 32.7544L81.5375 32.7544L81.5375 24.381L73.1641 24.381Z" fill="black"/>
<path d="M73.1621 16.2501L73.1621 24.6235L81.5355 24.6235L81.5355 16.2501L73.1621 16.2501Z" fill="black"/>
<path d="M73.1641 -0.000404358L73.1641 8.37305L81.5375 8.37305L81.5375 -0.000404724L73.1641 -0.000404358Z" fill="black"/>
<path d="M81.291 211.344L81.291 219.718L89.6644 219.718L89.6644 211.344L81.291 211.344Z" fill="black"/>
<path d="M81.291 203.232L81.291 211.605L89.6644 211.605L89.6644 203.232L81.291 203.232Z" fill="black"/>
<path d="M81.291 195.088L81.291 203.461L89.6644 203.461L89.6644 195.088L81.291 195.088Z" fill="black"/>
<path d="M81.291 178.826L81.291 187.2L89.6644 187.2L89.6644 178.826L81.291 178.826Z" fill="black"/>
<path d="M81.291 170.709L81.291 179.082L89.6644 179.082L89.6644 170.709L81.291 170.709Z" fill="black"/>
<path d="M81.2949 154.429L81.2949 162.802L89.6683 162.802L89.6683 154.429L81.2949 154.429Z" fill="black"/>
<path d="M81.291 138.191L81.291 146.564L89.6644 146.564L89.6644 138.191L81.291 138.191Z" fill="black"/>
<path d="M81.291 130.057L81.291 138.43L89.6644 138.43L89.6644 130.057L81.291 130.057Z" fill="black"/>
<path d="M81.291 113.789L81.291 122.163L89.6644 122.163L89.6644 113.789L81.291 113.789Z" fill="black"/>
<path d="M81.2969 97.5436L81.2969 105.917L89.6703 105.917L89.6703 97.5436L81.2969 97.5436Z" fill="black"/>
<path d="M81.2891 81.275L81.2891 89.6484L89.6625 89.6484L89.6625 81.275L81.2891 81.275Z" fill="black"/>
<path d="M81.2969 65.0221L81.2969 73.3955L89.6703 73.3955L89.6703 65.0221L81.2969 65.0221Z" fill="black"/>
<path d="M81.293 48.7652L81.293 57.1387L89.6664 57.1387L89.6664 48.7652L81.293 48.7652Z" fill="black"/>
<path d="M81.2969 40.6193L81.2969 48.9927L89.6703 48.9927L89.6703 40.6193L81.2969 40.6193Z" fill="black"/>
<path d="M81.291 32.5128L81.291 40.8862L89.6644 40.8862L89.6644 32.5128L81.291 32.5128Z" fill="black"/>
<path d="M81.2891 24.381L81.2891 32.7544L89.6625 32.7544L89.6625 24.381L81.2891 24.381Z" fill="black"/>
<path d="M81.293 16.2501L81.293 24.6235L89.6664 24.6235L89.6664 16.2501L81.293 16.2501Z" fill="black"/>
<path d="M89.4199 219.459L89.4199 227.833L97.7933 227.833L97.7933 219.459L89.4199 219.459Z" fill="black"/>
<path d="M89.4238 211.344L89.4238 219.718L97.7973 219.718L97.7973 211.344L89.4238 211.344Z" fill="black"/>
<path d="M89.4219 203.232L89.4219 211.605L97.7953 211.605L97.7953 203.232L89.4219 203.232Z" fill="black"/>
<path d="M89.4277 195.088L89.4277 203.461L97.8012 203.461L97.8012 195.088L89.4277 195.088Z" fill="black"/>
<path d="M89.4219 170.709L89.4219 179.082L97.7953 179.082L97.7953 170.709L89.4219 170.709Z" fill="black"/>
<path d="M89.4199 121.935L89.4199 130.309L97.7933 130.309L97.7933 121.935L89.4199 121.935Z" fill="black"/>
<path d="M89.4238 105.667L89.4238 114.04L97.7973 114.04L97.7973 105.667L89.4238 105.667Z" fill="black"/>
<path d="M89.4258 97.5436L89.4258 105.917L97.7992 105.917L97.7992 97.5436L89.4258 97.5436Z" fill="black"/>
<path d="M89.4199 73.1622L89.4199 81.5356L97.7933 81.5356L97.7933 73.1622L89.4199 73.1622Z" fill="black"/>
<path d="M89.4258 65.0221L89.4258 73.3955L97.7992 73.3955L97.7992 65.0221L89.4258 65.0221Z" fill="black"/>
<path d="M89.4258 48.7652L89.4258 57.1387L97.7992 57.1387L97.7992 48.7652L89.4258 48.7652Z" fill="black"/>
<path d="M89.4277 40.6193L89.4277 48.9927L97.8012 48.9927L97.8012 40.6193L89.4277 40.6193Z" fill="black"/>
<path d="M89.4258 32.5128L89.4258 40.8862L97.7992 40.8862L97.7992 32.5128L89.4258 32.5128Z" fill="black"/>
<path d="M89.4238 24.381L89.4238 32.7544L97.7973 32.7544L97.7973 24.381L89.4238 24.381Z" fill="black"/>
<path d="M89.4199 8.12365L89.4199 16.4971L97.7933 16.4971L97.7933 8.12365L89.4199 8.12365Z" fill="black"/>
<path d="M97.5547 195.088L97.5547 203.461L105.928 203.461L105.928 195.088L97.5547 195.088Z" fill="black"/>
<path d="M97.5547 186.965L97.5547 195.338L105.928 195.338L105.928 186.965L97.5547 186.965Z" fill="black"/>
<path d="M97.5547 178.826L97.5547 187.2L105.928 187.2L105.928 178.826L97.5547 178.826Z" fill="black"/>
<path d="M97.5527 154.429L97.5527 162.802L105.926 162.802L105.926 154.429L97.5527 154.429Z" fill="black"/>
<path d="M97.5527 146.316L97.5527 154.689L105.926 154.689L105.926 146.316L97.5527 146.316Z" fill="black"/>
<path d="M97.5449 130.057L97.5449 138.43L105.918 138.43L105.918 130.057L97.5449 130.057Z" fill="black"/>
<path d="M97.5547 121.935L97.5547 130.309L105.928 130.309L105.928 121.935L97.5547 121.935Z" fill="black"/>
<path d="M97.5547 113.789L97.5547 122.163L105.928 122.163L105.928 113.789L97.5547 113.789Z" fill="black"/>
<path d="M97.5527 81.275L97.5527 89.6484L105.926 89.6484L105.926 81.275L97.5527 81.275Z" fill="black"/>
<path d="M97.5547 73.1622L97.5547 81.5356L105.928 81.5356L105.928 73.1622L97.5547 73.1622Z" fill="black"/>
<path d="M97.5527 56.8995L97.5527 65.2729L105.926 65.2729L105.926 56.8995L97.5527 56.8995Z" fill="black"/>
<path d="M97.5527 24.381L97.5527 32.7544L105.926 32.7544L105.926 24.381L97.5527 24.381Z" fill="black"/>
<path d="M97.5547 16.2501L97.5547 24.6235L105.928 24.6235L105.928 16.2501L97.5547 16.2501Z" fill="black"/>
<path d="M97.5547 8.12365L97.5547 16.4971L105.928 16.4971L105.928 8.12365L97.5547 8.12365Z" fill="black"/>
<path d="M97.5547 -0.000404358L97.5547 8.37305L105.928 8.37305L105.928 -0.000404724L97.5547 -0.000404358Z" fill="black"/>
<path d="M105.682 219.459L105.682 227.833L114.055 227.833L114.055 219.459L105.682 219.459Z" fill="black"/>
<path d="M105.682 211.344L105.682 219.718L114.055 219.718L114.055 211.344L105.682 211.344Z" fill="black"/>
<path d="M105.682 203.232L105.682 211.605L114.055 211.605L114.055 203.232L105.682 203.232Z" fill="black"/>
<path d="M105.682 186.965L105.682 195.338L114.055 195.338L114.055 186.965L105.682 186.965Z" fill="black"/>
<path d="M105.68 170.709L105.68 179.082L114.053 179.082L114.053 170.709L105.68 170.709Z" fill="black"/>
<path d="M105.682 162.582L105.682 170.956L114.055 170.956L114.055 162.582L105.682 162.582Z" fill="black"/>
<path d="M105.674 154.429L105.674 162.802L114.047 162.802L114.047 154.429L105.674 154.429Z" fill="black"/>
<path d="M105.682 146.316L105.682 154.689L114.055 154.689L114.055 146.316L105.682 146.316Z" fill="black"/>
<path d="M105.682 130.057L105.682 138.43L114.055 138.43L114.055 130.057L105.682 130.057Z" fill="black"/>
<path d="M105.684 121.935L105.684 130.309L114.057 130.309L114.057 121.935L105.684 121.935Z" fill="black"/>
<path d="M105.682 89.4195L105.682 97.793L114.055 97.793L114.055 89.4195L105.682 89.4195Z" fill="black"/>
<path d="M105.682 73.1622L105.682 81.5356L114.055 81.5356L114.055 73.1622L105.682 73.1622Z" fill="black"/>
<path d="M105.674 65.0221L105.674 73.3955L114.047 73.3955L114.047 65.0221L105.674 65.0221Z" fill="black"/>
<path d="M105.682 56.8995L105.682 65.2729L114.055 65.2729L114.055 56.8995L105.682 56.8995Z" fill="black"/>
<path d="M105.682 48.7652L105.682 57.1387L114.055 57.1387L114.055 48.7652L105.682 48.7652Z" fill="black"/>
<path d="M105.682 32.5128L105.682 40.8862L114.055 40.8862L114.055 32.5128L105.682 32.5128Z" fill="black"/>
<path d="M105.682 24.381L105.682 32.7544L114.055 32.7544L114.055 24.381L105.682 24.381Z" fill="black"/>
<path d="M105.676 8.12365L105.676 16.4971L114.049 16.4971L114.049 8.12365L105.676 8.12365Z" fill="black"/>
<path d="M105.682 -0.000404358L105.682 8.37305L114.055 8.37305L114.055 -0.000404724L105.682 -0.000404358Z" fill="black"/>
<path d="M113.809 219.459L113.809 227.833L122.182 227.833L122.182 219.459L113.809 219.459Z" fill="black"/>
<path d="M113.809 211.344L113.809 219.718L122.182 219.718L122.182 211.344L113.809 211.344Z" fill="black"/>
<path d="M113.809 195.088L113.809 203.461L122.182 203.461L122.182 195.088L113.809 195.088Z" fill="black"/>
<path d="M113.809 186.965L113.809 195.338L122.182 195.338L122.182 186.965L113.809 186.965Z" fill="black"/>
<path d="M113.809 178.826L113.809 187.2L122.182 187.2L122.182 178.826L113.809 178.826Z" fill="black"/>
<path d="M113.809 170.709L113.809 179.082L122.182 179.082L122.182 170.709L113.809 170.709Z" fill="black"/>
<path d="M113.809 162.582L113.809 170.956L122.182 170.956L122.182 162.582L113.809 162.582Z" fill="black"/>
<path d="M113.809 154.429L113.809 162.802L122.182 162.802L122.182 154.429L113.809 154.429Z" fill="black"/>
<path d="M113.812 146.316L113.812 154.689L122.186 154.689L122.186 146.316L113.812 146.316Z" fill="black"/>
<path d="M113.805 89.4195L113.805 97.793L122.178 97.793L122.178 89.4195L113.805 89.4195Z" fill="black"/>
<path d="M113.811 56.8995L113.811 65.2729L122.184 65.2729L122.184 56.8995L113.811 56.8995Z" fill="black"/>
<path d="M113.809 8.12365L113.809 16.4971L122.182 16.4971L122.182 8.12365L113.809 8.12365Z" fill="black"/>
<path d="M121.937 211.344L121.938 219.718L130.311 219.718L130.311 211.344L121.937 211.344Z" fill="black"/>
<path d="M121.937 186.965L121.938 195.338L130.311 195.338L130.311 186.965L121.937 186.965Z" fill="black"/>
<path d="M121.937 162.582L121.938 170.956L130.311 170.956L130.311 162.582L121.937 162.582Z" fill="black"/>
<path d="M121.934 146.316L121.934 154.689L130.307 154.689L130.307 146.316L121.934 146.316Z" fill="black"/>
<path d="M121.937 138.191L121.938 146.564L130.311 146.564L130.311 138.191L121.937 138.191Z" fill="black"/>
<path d="M121.937 121.935L121.938 130.309L130.311 130.309L130.311 121.935L121.937 121.935Z" fill="black"/>
<path d="M121.943 113.789L121.943 122.163L130.317 122.163L130.317 113.789L121.943 113.789Z" fill="black"/>
<path d="M121.937 105.667L121.938 114.04L130.311 114.04L130.311 105.667L121.937 105.667Z" fill="black"/>
<path d="M121.941 97.5436L121.941 105.917L130.315 105.917L130.315 97.5436L121.941 97.5436Z" fill="black"/>
<path d="M121.934 89.4195L121.934 97.793L130.307 97.793L130.307 89.4195L121.934 89.4195Z" fill="black"/>
<path d="M121.936 81.275L121.936 89.6484L130.309 89.6484L130.309 81.275L121.936 81.275Z" fill="black"/>
<path d="M121.937 73.1622L121.938 81.5356L130.311 81.5356L130.311 73.1622L121.937 73.1622Z" fill="black"/>
<path d="M121.937 56.8995L121.938 65.2729L130.311 65.2729L130.311 56.8995L121.937 56.8995Z" fill="black"/>
<path d="M121.937 48.7652L121.938 57.1387L130.311 57.1387L130.311 48.7652L121.937 48.7652Z" fill="black"/>
<path d="M121.934 24.381L121.934 32.7544L130.307 32.7544L130.307 24.381L121.934 24.381Z" fill="black"/>
<path d="M130.07 227.601L130.07 235.975L138.444 235.975L138.444 227.601L130.07 227.601Z" fill="black"/>
<path d="M130.068 203.232L130.068 211.605L138.442 211.605L138.442 203.232L130.068 203.232Z" fill="black"/>
<path d="M130.07 195.088L130.07 203.461L138.444 203.461L138.444 195.088L130.07 195.088Z" fill="black"/>
<path d="M130.064 178.826L130.064 187.2L138.438 187.2L138.438 178.826L130.064 178.826Z" fill="black"/>
<path d="M130.068 170.709L130.068 179.082L138.442 179.082L138.442 170.709L130.068 170.709Z" fill="black"/>
<path d="M130.064 121.935L130.064 130.309L138.438 130.309L138.438 121.935L130.064 121.935Z" fill="black"/>
<path d="M130.066 105.667L130.066 114.04L138.44 114.04L138.44 105.667L130.066 105.667Z" fill="black"/>
<path d="M130.07 97.5436L130.07 105.917L138.444 105.917L138.444 97.5436L130.07 97.5436Z" fill="black"/>
<path d="M130.064 81.275L130.064 89.6484L138.438 89.6484L138.438 81.275L130.064 81.275Z" fill="black"/>
<path d="M130.07 40.6193L130.07 48.9927L138.444 48.9927L138.444 40.6193L130.07 40.6193Z" fill="black"/>
<path d="M130.062 24.381L130.062 32.7544L138.436 32.7544L138.436 24.381L130.062 24.381Z" fill="black"/>
<path d="M130.07 16.2501L130.07 24.6235L138.444 24.6235L138.444 16.2501L130.07 16.2501Z" fill="black"/>
<path d="M138.197 227.601L138.197 235.975L146.571 235.975L146.571 227.601L138.197 227.601Z" fill="black"/>
<path d="M138.195 219.459L138.195 227.833L146.569 227.833L146.569 219.459L138.195 219.459Z" fill="black"/>
<path d="M138.197 211.344L138.197 219.718L146.571 219.718L146.571 211.344L138.197 211.344Z" fill="black"/>
<path d="M138.191 203.232L138.191 211.605L146.565 211.605L146.565 203.232L138.191 203.232Z" fill="black"/>
<path d="M138.197 186.965L138.197 195.338L146.571 195.338L146.571 186.965L138.197 186.965Z" fill="black"/>
<path d="M138.195 154.429L138.195 162.802L146.569 162.802L146.569 154.429L138.195 154.429Z" fill="black"/>
<path d="M138.195 138.191L138.195 146.564L146.569 146.564L146.569 138.191L138.195 138.191Z" fill="black"/>
<path d="M138.189 81.275L138.189 89.6484L146.563 89.6484L146.563 81.275L138.189 81.275Z" fill="black"/>
<path d="M138.195 73.1622L138.195 81.5356L146.569 81.5356L146.569 73.1622L138.195 73.1622Z" fill="black"/>
<path d="M138.197 65.0221L138.197 73.3955L146.571 73.3955L146.571 65.0221L138.197 65.0221Z" fill="black"/>
<path d="M138.197 48.7652L138.197 57.1387L146.571 57.1387L146.571 48.7652L138.197 48.7652Z" fill="black"/>
<path d="M138.197 40.6193L138.197 48.9927L146.571 48.9927L146.571 40.6193L138.197 40.6193Z" fill="black"/>
<path d="M138.197 32.5128L138.197 40.8862L146.571 40.8862L146.571 32.5128L138.197 32.5128Z" fill="black"/>
<path d="M138.197 16.2501L138.197 24.6235L146.571 24.6235L146.571 16.2501L138.197 16.2501Z" fill="black"/>
<path d="M138.195 8.12365L138.195 16.4971L146.569 16.4971L146.569 8.12365L138.195 8.12365Z" fill="black"/>
<path d="M138.197 -0.000404358L138.197 8.37305L146.571 8.37305L146.571 -0.000404724L138.197 -0.000404358Z" fill="black"/>
<path d="M146.324 227.601L146.324 235.975L154.698 235.975L154.698 227.601L146.324 227.601Z" fill="black"/>
<path d="M146.324 203.232L146.324 211.605L154.698 211.605L154.698 203.232L146.324 203.232Z" fill="black"/>
<path d="M146.328 195.088L146.328 203.461L154.702 203.461L154.702 195.088L146.328 195.088Z" fill="black"/>
<path d="M146.324 186.965L146.324 195.338L154.698 195.338L154.698 186.965L146.324 186.965Z" fill="black"/>
<path d="M146.328 178.826L146.328 187.2L154.702 187.2L154.702 178.826L146.328 178.826Z" fill="black"/>
<path d="M146.328 170.709L146.328 179.082L154.702 179.082L154.702 170.709L146.328 170.709Z" fill="black"/>
<path d="M146.324 162.582L146.324 170.956L154.698 170.956L154.698 162.582L146.324 162.582Z" fill="black"/>
<path d="M146.326 138.191L146.326 146.564L154.7 146.564L154.7 138.191L146.326 138.191Z" fill="black"/>
<path d="M146.326 130.057L146.326 138.43L154.7 138.43L154.7 130.057L146.326 130.057Z" fill="black"/>
<path d="M146.326 105.667L146.326 114.04L154.7 114.04L154.7 105.667L146.326 105.667Z" fill="black"/>
<path d="M146.33 97.5436L146.33 105.917L154.703 105.917L154.703 97.5436L146.33 97.5436Z" fill="black"/>
<path d="M146.326 89.4195L146.326 97.793L154.7 97.793L154.7 89.4195L146.326 89.4195Z" fill="black"/>
<path d="M146.326 48.7652L146.326 57.1387L154.7 57.1387L154.7 48.7652L146.326 48.7652Z" fill="black"/>
<path d="M146.332 40.6193L146.332 48.9927L154.705 48.9927L154.705 40.6193L146.332 40.6193Z" fill="black"/>
<path d="M146.328 24.381L146.328 32.7544L154.702 32.7544L154.702 24.381L146.328 24.381Z" fill="black"/>
<path d="M154.455 227.601L154.455 235.975L162.828 235.975L162.828 227.601L154.455 227.601Z" fill="black"/>
<path d="M154.453 195.088L154.453 203.461L162.827 203.461L162.827 195.088L154.453 195.088Z" fill="black"/>
<path d="M154.459 186.965L154.459 195.338L162.832 195.338L162.832 186.965L154.459 186.965Z" fill="black"/>
<path d="M154.453 170.709L154.453 179.082L162.827 179.082L162.827 170.709L154.453 170.709Z" fill="black"/>
<path d="M154.453 162.582L154.453 170.956L162.827 170.956L162.827 162.582L154.453 162.582Z" fill="black"/>
<path d="M154.445 146.316L154.445 154.689L162.819 154.689L162.819 146.316L154.445 146.316Z" fill="black"/>
<path d="M154.455 138.191L154.455 146.564L162.828 146.564L162.828 138.191L154.455 138.191Z" fill="black"/>
<path d="M154.447 113.789L154.447 122.163L162.821 122.163L162.821 113.789L154.447 113.789Z" fill="black"/>
<path d="M154.447 105.667L154.447 114.04L162.821 114.04L162.821 105.667L154.447 105.667Z" fill="black"/>
<path d="M154.461 89.4195L154.461 97.793L162.834 97.793L162.834 89.4195L154.461 89.4195Z" fill="black"/>
<path d="M154.445 81.275L154.445 89.6484L162.819 89.6484L162.819 81.275L154.445 81.275Z" fill="black"/>
<path d="M154.455 65.0221L154.455 73.3955L162.828 73.3955L162.828 65.0221L154.455 65.0221Z" fill="black"/>
<path d="M154.455 48.7652L154.455 57.1387L162.828 57.1387L162.828 48.7652L154.455 48.7652Z" fill="black"/>
<path d="M154.453 40.6193L154.453 48.9927L162.827 48.9927L162.827 40.6193L154.453 40.6193Z" fill="black"/>
<path d="M154.455 32.5128L154.455 40.8862L162.828 40.8862L162.828 32.5128L154.455 32.5128Z" fill="black"/>
<path d="M154.449 24.381L154.449 32.7544L162.823 32.7544L162.823 24.381L154.449 24.381Z" fill="black"/>
<path d="M154.453 8.12365L154.453 16.4971L162.827 16.4971L162.827 8.12365L154.453 8.12365Z" fill="black"/>
<path d="M162.584 227.601L162.584 235.975L170.957 235.975L170.957 227.601L162.584 227.601Z" fill="black"/>
<path d="M162.584 211.344L162.584 219.718L170.957 219.718L170.957 211.344L162.584 211.344Z" fill="black"/>
<path d="M162.58 195.088L162.58 203.461L170.954 203.461L170.954 195.088L162.58 195.088Z" fill="black"/>
<path d="M162.58 178.826L162.58 187.2L170.954 187.2L170.954 178.826L162.58 178.826Z" fill="black"/>
<path d="M162.58 170.709L162.58 179.082L170.954 179.082L170.954 170.709L162.58 170.709Z" fill="black"/>
<path d="M162.584 162.582L162.584 170.956L170.957 170.956L170.957 162.582L162.584 162.582Z" fill="black"/>
<path d="M162.582 146.316L162.582 154.689L170.955 154.689L170.955 146.316L162.582 146.316Z" fill="black"/>
<path d="M162.582 130.057L162.582 138.43L170.955 138.43L170.955 130.057L162.582 130.057Z" fill="black"/>
<path d="M162.59 113.789L162.59 122.163L170.963 122.163L170.963 113.789L162.59 113.789Z" fill="black"/>
<path d="M162.584 105.667L162.584 114.04L170.957 114.04L170.957 105.667L162.584 105.667Z" fill="black"/>
<path d="M162.59 97.5436L162.59 105.917L170.963 105.917L170.963 97.5436L162.59 97.5436Z" fill="black"/>
<path d="M162.588 65.0221L162.588 73.3955L170.961 73.3955L170.961 65.0221L162.588 65.0221Z" fill="black"/>
<path d="M162.582 56.8995L162.582 65.2729L170.955 65.2729L170.955 56.8995L162.582 56.8995Z" fill="black"/>
<path d="M162.582 48.7652L162.582 57.1387L170.955 57.1387L170.955 48.7652L162.582 48.7652Z" fill="black"/>
<path d="M162.59 40.6193L162.59 48.9927L170.963 48.9927L170.963 40.6193L162.59 40.6193Z" fill="black"/>
<path d="M162.584 32.5128L162.584 40.8862L170.957 40.8862L170.957 32.5128L162.584 32.5128Z" fill="black"/>
<path d="M162.58 16.2501L162.58 24.6235L170.954 24.6235L170.954 16.2501L162.58 16.2501Z" fill="black"/>
<path d="M162.588 8.12365L162.588 16.4971L170.961 16.4971L170.961 8.12365L162.588 8.12365Z" fill="black"/>
<path d="M162.58 -0.000404358L162.58 8.37305L170.954 8.37305L170.954 -0.000404724L162.58 -0.000404358Z" fill="black"/>
<path d="M170.709 162.582L170.709 170.956L179.082 170.956L179.082 162.582L170.709 162.582Z" fill="black"/>
<path d="M170.709 154.428L170.709 162.801L179.082 162.801L179.082 154.428L170.709 154.428Z" fill="black"/>
<path d="M170.711 146.316L170.711 154.689L179.084 154.689L179.084 146.316L170.711 146.316Z" fill="black"/>
<path d="M170.711 130.057L170.711 138.43L179.084 138.43L179.084 130.057L170.711 130.057Z" fill="black"/>
<path d="M170.717 89.4195L170.717 97.793L179.09 97.793L179.09 89.4195L170.717 89.4195Z" fill="black"/>
<path d="M170.711 73.1622L170.711 81.5356L179.084 81.5356L179.084 73.1622L170.711 73.1622Z" fill="black"/>
<path d="M170.717 65.0221L170.717 73.3955L179.09 73.3955L179.09 65.0221L170.717 65.0221Z" fill="black"/>
<path d="M170.709 32.5128L170.709 40.8862L179.082 40.8862L179.082 32.5128L170.709 32.5128Z" fill="black"/>
<path d="M170.709 24.381L170.709 32.7544L179.082 32.7544L179.082 24.381L170.709 24.381Z" fill="black"/>
<path d="M170.711 8.12365L170.711 16.4971L179.084 16.4971L179.084 8.12365L170.711 8.12365Z" fill="black"/>
<path d="M170.717 -0.000404358L170.717 8.37305L179.09 8.37305L179.09 -0.000404724L170.717 -0.000404358Z" fill="black"/>
<path d="M178.838 138.191L178.838 146.564L187.211 146.564L187.211 138.191L178.838 138.191Z" fill="black"/>
<path d="M178.838 130.057L178.838 138.43L187.211 138.43L187.211 130.057L178.838 130.057Z" fill="black"/>
<path d="M178.838 97.5436L178.838 105.917L187.211 105.917L187.211 97.5436L178.838 97.5436Z" fill="black"/>
<path d="M178.836 81.275L178.836 89.6484L187.209 89.6484L187.209 81.275L178.836 81.275Z" fill="black"/>
<path d="M178.838 73.1622L178.838 81.5356L187.211 81.5356L187.211 73.1622L178.838 73.1622Z" fill="black"/>
<path d="M178.836 65.0221L178.836 73.3955L187.209 73.3955L187.209 65.0221L178.836 65.0221Z" fill="black"/>
<path d="M178.838 48.7652L178.838 57.1387L187.211 57.1387L187.211 48.7652L178.838 48.7652Z" fill="black"/>
<path d="M178.838 32.5128L178.838 40.8862L187.211 40.8862L187.211 32.5128L178.838 32.5128Z" fill="black"/>
<path d="M186.967 154.428L186.967 162.801L195.34 162.801L195.34 154.428L186.967 154.428Z" fill="black"/>
<path d="M186.973 146.316L186.973 154.689L195.346 154.689L195.346 146.316L186.973 146.316Z" fill="black"/>
<path d="M186.963 130.057L186.963 138.43L195.336 138.43L195.336 130.057L186.963 130.057Z" fill="black"/>
<path d="M186.975 105.667L186.975 114.04L195.348 114.04L195.348 105.667L186.975 105.667Z" fill="black"/>
<path d="M186.967 97.5436L186.967 105.917L195.34 105.917L195.34 97.5436L186.967 97.5436Z" fill="black"/>
<path d="M186.967 89.4195L186.967 97.793L195.34 97.793L195.34 89.4195L186.967 89.4195Z" fill="black"/>
<path d="M186.971 81.275L186.971 89.6484L195.344 89.6484L195.344 81.275L186.971 81.275Z" fill="black"/>
<path d="M186.973 73.1622L186.973 81.5356L195.346 81.5356L195.346 73.1622L186.973 73.1622Z" fill="black"/>
<path d="M186.965 65.0221L186.965 73.3955L195.338 73.3955L195.338 65.0221L186.965 65.0221Z" fill="black"/>
<path d="M186.965 32.5128L186.965 40.8862L195.338 40.8862L195.338 32.5128L186.965 32.5128Z" fill="black"/>
<path d="M186.975 24.381L186.975 32.7544L195.348 32.7544L195.348 24.381L186.975 24.381Z" fill="black"/>
<path d="M195.098 162.582L195.098 170.956L203.471 170.956L203.471 162.582L195.098 162.582Z" fill="black"/>
<path d="M195.104 154.428L195.104 162.801L203.477 162.801L203.477 154.428L195.104 154.428Z" fill="black"/>
<path d="M195.098 121.935L195.098 130.309L203.471 130.309L203.471 121.935L195.098 121.935Z" fill="black"/>
<path d="M195.098 113.789L195.098 122.163L203.471 122.163L203.471 113.789L195.098 113.789Z" fill="black"/>
<path d="M195.098 65.0221L195.098 73.3955L203.471 73.3955L203.471 65.0221L195.098 65.0221Z" fill="black"/>
<path d="M195.1 56.8995L195.1 65.2729L203.473 65.2729L203.473 56.8995L195.1 56.8995Z" fill="black"/>
<path d="M195.098 48.7652L195.098 57.1387L203.471 57.1387L203.471 48.7652L195.098 48.7652Z" fill="black"/>
<path d="M195.098 40.6193L195.098 48.9927L203.471 48.9927L203.471 40.6193L195.098 40.6193Z" fill="black"/>
<path d="M195.098 32.5128L195.098 40.8862L203.471 40.8862L203.471 32.5128L195.098 32.5128Z" fill="black"/>
<path d="M195.102 24.381L195.102 32.7544L203.475 32.7544L203.475 24.381L195.102 24.381Z" fill="black"/>
<path d="M195.098 16.2501L195.098 24.6235L203.471 24.6235L203.471 16.2501L195.098 16.2501Z" fill="black"/>
<path d="M203.225 162.582L203.225 170.956L211.598 170.956L211.598 162.582L203.225 162.582Z" fill="black"/>
<path d="M203.217 154.429L203.217 162.802L211.59 162.802L211.59 154.429L203.217 154.429Z" fill="black"/>
<path d="M203.229 146.316L203.229 154.689L211.602 154.689L211.602 146.316L203.229 146.316Z" fill="black"/>
<path d="M203.227 130.057L203.227 138.43L211.6 138.43L211.6 130.057L203.227 130.057Z" fill="black"/>
<path d="M203.227 121.935L203.227 130.309L211.6 130.309L211.6 121.935L203.227 121.935Z" fill="black"/>
<path d="M203.227 113.789L203.227 122.163L211.6 122.163L211.6 113.789L203.227 113.789Z" fill="black"/>
<path d="M203.225 105.667L203.225 114.04L211.598 114.04L211.598 105.667L203.225 105.667Z" fill="black"/>
<path d="M203.219 97.5436L203.219 105.917L211.592 105.917L211.592 97.5436L203.219 97.5436Z" fill="black"/>
<path d="M203.227 81.275L203.227 89.6484L211.6 89.6484L211.6 81.275L203.227 81.275Z" fill="black"/>
<path d="M203.227 73.1622L203.227 81.5356L211.6 81.5356L211.6 73.1622L203.227 73.1622Z" fill="black"/>
<path d="M203.221 40.6193L203.221 48.9927L211.594 48.9927L211.594 40.6193L203.221 40.6193Z" fill="black"/>
<path d="M203.227 24.381L203.227 32.7544L211.6 32.7544L211.6 24.381L203.227 24.381Z" fill="black"/>
<path d="M203.227 16.2501L203.227 24.6235L211.6 24.6235L211.6 16.2501L203.227 16.2501Z" fill="black"/>
<path d="M211.354 162.582L211.354 170.956L219.727 170.956L219.727 162.582L211.354 162.582Z" fill="black"/>
<path d="M211.354 138.191L211.354 146.564L219.727 146.564L219.727 138.191L211.354 138.191Z" fill="black"/>
<path d="M211.361 113.789L211.361 122.163L219.735 122.163L219.735 113.789L211.361 113.789Z" fill="black"/>
<path d="M211.354 48.7652L211.354 57.1387L219.727 57.1387L219.727 48.7652L211.354 48.7652Z" fill="black"/>
<path d="M211.354 32.5128L211.354 40.8862L219.727 40.8862L219.727 32.5128L211.354 32.5128Z" fill="black"/>
<path d="M211.361 24.381L211.361 32.7544L219.735 32.7544L219.735 24.381L211.361 24.381Z" fill="black"/>
<path d="M211.354 16.2501L211.354 24.6235L219.727 24.6235L219.727 16.2501L211.354 16.2501Z" fill="black"/>
<path d="M211.357 8.12365L211.357 16.4971L219.731 16.4971L219.731 8.12365L211.357 8.12365Z" fill="black"/>
<path d="M219.484 154.429L219.484 162.802L227.858 162.802L227.858 154.429L219.484 154.429Z" fill="black"/>
<path d="M219.482 146.316L219.482 154.689L227.856 154.689L227.856 146.316L219.482 146.316Z" fill="black"/>
<path d="M219.482 138.191L219.482 146.564L227.856 146.564L227.856 138.191L219.482 138.191Z" fill="black"/>
<path d="M219.482 130.057L219.482 138.43L227.856 138.43L227.856 130.057L219.482 130.057Z" fill="black"/>
<path d="M219.488 121.935L219.488 130.309L227.862 130.309L227.862 121.935L219.488 121.935Z" fill="black"/>
<path d="M219.488 113.789L219.488 122.163L227.862 122.163L227.862 113.789L219.488 113.789Z" fill="black"/>
<path d="M219.484 105.667L219.484 114.04L227.858 114.04L227.858 105.667L219.484 105.667Z" fill="black"/>
<path d="M219.482 73.1622L219.482 81.5356L227.856 81.5356L227.856 73.1622L219.482 73.1622Z" fill="black"/>
<path d="M219.482 65.0221L219.482 73.3955L227.856 73.3955L227.856 65.0221L219.482 65.0221Z" fill="black"/>
<path d="M219.484 56.8995L219.484 65.2729L227.858 65.2729L227.858 56.8995L219.484 56.8995Z" fill="black"/>
<path d="M219.482 32.5128L219.482 40.8862L227.856 40.8862L227.856 32.5128L219.482 32.5128Z" fill="black"/>
<path d="M219.484 24.381L219.484 32.7544L227.858 32.7544L227.858 24.381L219.484 24.381Z" fill="black"/>
<path d="M219.482 8.12365L219.482 16.4971L227.856 16.4971L227.856 8.12365L219.482 8.12365Z" fill="black"/>
<path d="M227.611 146.316L227.611 154.689L235.985 154.689L235.985 146.316L227.611 146.316Z" fill="black"/>
<path d="M227.617 121.935L227.617 130.309L235.991 130.309L235.991 121.935L227.617 121.935Z" fill="black"/>
<path d="M227.611 113.789L227.611 122.163L235.985 122.163L235.985 113.789L227.611 113.789Z" fill="black"/>
<path d="M227.611 105.667L227.611 114.04L235.985 114.04L235.985 105.667L227.611 105.667Z" fill="black"/>
<path d="M227.617 97.5436L227.617 105.917L235.991 105.917L235.991 97.5436L227.617 97.5436Z" fill="black"/>
<path d="M227.617 89.4195L227.617 97.793L235.991 97.793L235.991 89.4195L227.617 89.4195Z" fill="black"/>
<path d="M227.617 73.1622L227.617 81.5356L235.991 81.5356L235.991 73.1622L227.617 73.1622Z" fill="black"/>
<path d="M227.617 48.7652L227.617 57.1387L235.991 57.1387L235.991 48.7652L227.617 48.7652Z" fill="black"/>
<path d="M227.617 32.5128L227.617 40.8862L235.991 40.8862L235.991 32.5128L227.617 32.5128Z" fill="black"/>
<path d="M227.617 16.2501L227.617 24.6235L235.991 24.6235L235.991 16.2501L227.617 16.2501Z" fill="black"/>
<path d="M0 235.975L56.9034 235.975L56.9034 179.071L-2.48733e-06 179.071L0 235.975ZM48.7743 187.2L48.7743 227.846L8.12905 227.846L8.12905 187.2L48.7743 187.2Z" fill="black"/>
<path d="M0 57.1377L56.9034 57.1377L56.9034 0.234353L-2.48732e-06 0.234356L0 57.1377ZM48.7743 8.3634L48.7743 49.0086L8.12905 49.0086L8.12905 8.3634L48.7743 8.3634Z" fill="black"/>
<path d="M178.838 235.975L235.741 235.975L235.741 179.071L178.838 179.071L178.838 235.975ZM227.612 187.2L227.612 227.846L186.967 227.846L186.967 187.2L227.612 187.2Z" fill="black"/>
<path d="M16.2559 195.338L16.2559 219.726L40.643 219.726L40.643 195.338L16.2559 195.338Z" fill="black"/>
<path d="M16.2559 16.4991L16.2559 40.8862L40.643 40.8862L40.643 16.4991L16.2559 16.4991Z" fill="black"/>
<path d="M195.104 195.338L195.104 219.726L219.491 219.726L219.491 195.338L195.104 195.338Z" fill="black"/>
</svg>
