<svg width="17" height="17" viewBox="0 0 17 17" fill="none" xmlns="http://www.w3.org/2000/svg">
<path fill-rule="evenodd" clip-rule="evenodd" d="M1.89844 8.63853C1.89844 8.50592 1.95112 8.37874 2.04488 8.28498C2.13865 8.19121 2.26583 8.13853 2.39844 8.13853H14.1914L11.0444 4.99253C10.9506 4.89864 10.8978 4.7713 10.8978 4.63853C10.8978 4.50575 10.9506 4.37842 11.0444 4.28453C11.1383 4.19064 11.2657 4.1379 11.3984 4.1379C11.5312 4.1379 11.6586 4.19064 11.7524 4.28453L15.7524 8.28453C15.799 8.33097 15.8359 8.38615 15.8611 8.4469C15.8864 8.50764 15.8993 8.57276 15.8993 8.63853C15.8993 8.7043 15.8864 8.76942 15.8611 8.83016C15.8359 8.89091 15.799 8.94608 15.7524 8.99253L11.7524 12.9925C11.6586 13.0864 11.5312 13.1392 11.3984 13.1392C11.2657 13.1392 11.1383 13.0864 11.0444 12.9925C10.9506 12.8986 10.8978 12.7713 10.8978 12.6385C10.8978 12.5058 10.9506 12.3784 11.0444 12.2845L14.1914 9.13853H2.39844C2.26583 9.13853 2.13865 9.08585 2.04488 8.99208C1.95112 8.89831 1.89844 8.77114 1.89844 8.63853Z" fill="#7B7B7B"/>
</svg>
