<svg width="17" height="17" viewBox="0 0 17 17" fill="none" xmlns="http://www.w3.org/2000/svg">
<path d="M10.0039 4.5H13.0039C13.28 4.5 13.5039 4.72386 13.5039 5C13.5039 5.27614 13.28 5.5 13.0039 5.5H12.4514L11.6985 12.2761C11.5578 13.5422 10.4877 14.5 9.21381 14.5H6.79398C5.52011 14.5 4.44995 13.5422 4.30928 12.2761L3.55638 5.5H3.00391C2.72776 5.5 2.50391 5.27614 2.50391 5C2.50391 4.72386 2.72776 4.5 3.00391 4.5H6.00391C6.00391 3.39543 6.89934 2.5 8.00391 2.5C9.10848 2.5 10.0039 3.39543 10.0039 4.5ZM8.00391 3.5C7.45162 3.5 7.00391 3.94772 7.00391 4.5H9.00391C9.00391 3.94772 8.55619 3.5 8.00391 3.5ZM6.50391 7.5L6.50391 11.5C6.50391 11.7761 6.72776 12 7.00391 12C7.28005 12 7.50391 11.7761 7.50391 11.5L7.50391 7.5C7.50391 7.22386 7.28005 7 7.00391 7C6.72776 7 6.50391 7.22386 6.50391 7.5ZM9.00391 7C8.72776 7 8.50391 7.22386 8.50391 7.5V11.5C8.50391 11.7761 8.72776 12 9.00391 12C9.28005 12 9.50391 11.7761 9.50391 11.5V7.5C9.50391 7.22386 9.28005 7 9.00391 7Z" fill="#727578"/>
</svg>
