<svg width="18" height="20" viewBox="0 0 18 20" fill="none" xmlns="http://www.w3.org/2000/svg">
<path d="M1 4.66699H2.77778H17" stroke="#727578" stroke-width="2" stroke-linecap="round" stroke-linejoin="round"/>
<path d="M5.44401 4.66688V2.88911C5.44401 2.41761 5.63131 1.96543 5.96471 1.63203C6.29811 1.29863 6.75029 1.11133 7.22179 1.11133H10.7773C11.2488 1.11133 11.701 1.29863 12.0344 1.63203C12.3678 1.96543 12.5551 2.41761 12.5551 2.88911V4.66688M15.2218 4.66688V17.1113C15.2218 17.5828 15.0345 18.035 14.7011 18.3684C14.3677 18.7018 13.9155 18.8891 13.444 18.8891H4.55512C4.08363 18.8891 3.63144 18.7018 3.29804 18.3684C2.96464 18.035 2.77734 17.5828 2.77734 17.1113V4.66688H15.2218Z" stroke="#727578" stroke-width="2" stroke-linecap="round" stroke-linejoin="round"/>
<path d="M7.22266 9.11133V14.4447" stroke="#727578" stroke-width="2" stroke-linecap="round" stroke-linejoin="round"/>
<path d="M10.7773 9.11133V14.4447" stroke="#727578" stroke-width="2" stroke-linecap="round" stroke-linejoin="round"/>
</svg>
