<svg width="100" height="100" viewBox="0 0 100 100" fill="none" xmlns="http://www.w3.org/2000/svg">
<path d="M43.9826 6.86847C47.1696 3.23078 52.8304 3.23079 56.0174 6.86847L58.7109 9.94292C60.6456 12.1513 63.6345 13.1224 66.4977 12.473L70.4839 11.5689C75.2004 10.4992 79.7801 13.8266 80.2202 18.6428L80.5922 22.7132C80.8594 25.637 82.7066 28.1796 85.4047 29.3372L89.161 30.9488C93.6055 32.8556 95.3548 38.2394 92.88 42.3945L90.7884 45.9062C89.2859 48.4286 89.2859 51.5714 90.7884 54.0938L92.88 57.6055C95.3548 61.7606 93.6055 67.1444 89.161 69.0512L85.4048 70.6628C82.7066 71.8204 80.8594 74.363 80.5922 77.2868L80.2202 81.3572C79.7801 86.1734 75.2004 89.5008 70.4839 88.4311L66.4977 87.527C63.6345 86.8776 60.6456 87.8487 58.7109 90.0571L56.0174 93.1315C52.8305 96.7692 47.1696 96.7692 43.9826 93.1315L41.2891 90.0571C39.3544 87.8487 36.3655 86.8776 33.5023 87.527L29.5161 88.4311C24.7996 89.5008 20.2199 86.1734 19.7798 81.3572L19.4078 77.2868C19.1406 74.363 17.2934 71.8204 14.5953 70.6628L10.839 69.0512C6.3945 67.1444 4.64518 61.7606 7.12001 57.6055L9.21165 54.0938C10.7141 51.5714 10.7141 48.4286 9.21165 45.9062L7.12001 42.3945C4.64518 38.2394 6.39449 32.8556 10.839 30.9488L14.5952 29.3372C17.2934 28.1796 19.1406 25.637 19.4078 22.7132L19.7798 18.6428C20.2199 13.8266 24.7996 10.4992 29.5161 11.5689L33.5023 12.473C36.3655 13.1224 39.3544 12.1513 41.2891 9.94292L43.9826 6.86847Z" fill="#202020"/>
<path d="M45.7193 59.6898L35.2893 49.2698C35.1255 49.0785 35.0399 48.8324 35.0496 48.5807C35.0593 48.329 35.1636 48.0903 35.3417 47.9122C35.5198 47.7341 35.7586 47.6298 36.0102 47.6201C36.2619 47.6103 36.508 47.6959 36.6993 47.8598L45.6993 56.8598L63.2893 39.2898C63.4806 39.1259 63.7267 39.0403 63.9783 39.0501C64.23 39.0598 64.4688 39.1641 64.6468 39.3422C64.8249 39.5203 64.9293 39.759 64.939 40.0107C64.9487 40.2624 64.8631 40.5085 64.6993 40.6998L45.7193 59.6898Z" fill="#F6F4F2"/>
</svg>
