<svg width="35" height="30" viewBox="0 0 35 30" fill="none" xmlns="http://www.w3.org/2000/svg">
<path d="M6.20968 30C2.79831 30 0 27.2461 0 23.8889V10.5556C0 7.19833 2.79831 4.44444 6.20968 4.44444H8.99698L10.2671 1.09378C10.5119 0.438389 11.1448 0 11.8548 0H23.1452C23.8552 0.00217 24.4881 0.438366 24.7329 1.09378L26.003 4.44444H28.7903C32.2017 4.44444 35 7.19833 35 10.5556V23.8889C35 27.2461 32.2017 30 28.7903 30H6.20968ZM6.20968 26.6667H28.7903C30.3824 26.6667 31.6129 25.4557 31.6129 23.8889V10.5556C31.6129 8.98872 30.3824 7.77778 28.7903 7.77778H24.8387C24.1331 7.77778 23.5002 7.35026 23.251 6.70139L21.9632 3.33333H13.0371L11.7493 6.70139C11.5001 7.35028 10.8673 7.77994 10.1616 7.77778H6.21002C4.61791 7.77778 3.38744 8.98872 3.38744 10.5556V23.8889C3.38744 25.4557 4.61791 26.6667 6.21002 26.6667H6.20968ZM17.5 25C13.1559 25 9.59677 21.4974 9.59677 17.2222C9.59677 12.9471 13.1559 9.44444 17.5 9.44444C21.8441 9.44444 25.4032 12.9471 25.4032 17.2222C25.4032 21.4974 21.8441 25 17.5 25ZM17.5 21.6667C20.0138 21.6667 22.0161 19.6962 22.0161 17.2222C22.0161 14.7483 20.0138 12.7778 17.5 12.7778C14.9862 12.7778 12.9839 14.7483 12.9839 17.2222C12.9839 19.6962 14.9862 21.6667 17.5 21.6667Z" fill="black"/>
</svg>
