<svg width="17" height="19" viewBox="0 0 17 19" fill="none" xmlns="http://www.w3.org/2000/svg">
<path d="M15.75 4.6875H12.5625V4.3125C12.5625 1.93125 10.6313 0 8.25 0C5.86875 0 3.9375 1.93125 3.9375 4.3125V4.6875H0.75C0.335156 4.6875 0 5.02266 0 5.4375V18C0 18.4148 0.335156 18.75 0.75 18.75H15.75C16.1648 18.75 16.5 18.4148 16.5 18V5.4375C16.5 5.02266 16.1648 4.6875 15.75 4.6875ZM5.625 4.3125C5.625 2.86172 6.79922 1.6875 8.25 1.6875C9.70078 1.6875 10.875 2.86172 10.875 4.3125V4.6875H5.625V4.3125ZM14.8125 17.0625H1.6875V6.375H3.9375V8.4375C3.9375 8.54062 4.02187 8.625 4.125 8.625H5.4375C5.54063 8.625 5.625 8.54062 5.625 8.4375V6.375H10.875V8.4375C10.875 8.54062 10.9594 8.625 11.0625 8.625H12.375C12.4781 8.625 12.5625 8.54062 12.5625 8.4375V6.375H14.8125V17.0625Z" fill="black"/>
</svg>
