<svg width="8" height="8" viewBox="0 0 8 8" fill="none" xmlns="http://www.w3.org/2000/svg">
<path d="M7.26798 7.86199L4 4.59401L0.732021 7.86199C0.548012 8.046 0.322017 8.046 0.138007 7.86199C-0.0460024 7.67798 -0.0460024 7.45199 0.138007 7.26798L3.40599 4L0.138007 0.73202C-0.0460024 0.548011 -0.0460024 0.322017 0.138007 0.138007C0.322017 -0.0460024 0.548012 -0.0460024 0.732021 0.138007L4 3.40599L7.26798 0.138007C7.45199 -0.0460024 7.67799 -0.0460024 7.862 0.138007C8.04601 0.322017 8.04601 0.548011 7.862 0.73202L4.59402 4L7.862 7.26798C8.04601 7.45199 8.04601 7.67798 7.862 7.86199C7.67799 8.03163 7.43762 8.03163 7.26798 7.86199Z" fill="black"/>
</svg>
