<svg width="25" height="24" viewBox="0 0 25 24" fill="none" xmlns="http://www.w3.org/2000/svg">
<g clip-path="url(#clip0)">
<rect width="24" height="24" transform="translate(0.0390625)"/>
<rect width="30" height="30" transform="translate(-2.96094 -3)"/>
<path d="M5.55993 3.69301L12.0399 10.173L18.4933 3.71967C18.6064 3.5993 18.7426 3.503 18.8938 3.43656C19.045 3.37011 19.2081 3.33489 19.3733 3.33301C19.7269 3.33301 20.066 3.47348 20.3161 3.72353C20.5661 3.97358 20.7066 4.31272 20.7066 4.66634C20.7097 4.82981 20.6794 4.99219 20.6175 5.14352C20.5556 5.29484 20.4634 5.43192 20.3466 5.54634L13.8266 11.9997L20.3466 18.5197C20.5664 18.7347 20.6952 19.0258 20.7066 19.333C20.7066 19.6866 20.5661 20.0258 20.3161 20.2758C20.066 20.5259 19.7269 20.6663 19.3733 20.6663C19.2033 20.6734 19.0338 20.645 18.8754 20.5831C18.717 20.5211 18.5733 20.4268 18.4533 20.3063L12.0399 13.8263L5.57326 20.293C5.4606 20.4094 5.32602 20.5023 5.17727 20.5663C5.02852 20.6304 4.86855 20.6644 4.7066 20.6663C4.35298 20.6663 4.01384 20.5259 3.76379 20.2758C3.51374 20.0258 3.37326 19.6866 3.37326 19.333C3.37016 19.1695 3.40048 19.0072 3.46239 18.8558C3.5243 18.7045 3.61647 18.5674 3.73326 18.453L10.2533 11.9997L3.73326 5.47967C3.51351 5.26469 3.38465 4.97356 3.37326 4.66634C3.37326 4.31272 3.51374 3.97358 3.76379 3.72353C4.01384 3.47348 4.35298 3.33301 4.7066 3.33301C5.0266 3.33701 5.33326 3.46634 5.55993 3.69301Z" fill="#B1B1B1"/>
</g>
<defs>
<clipPath id="clip0">
<rect width="24" height="24" fill="white" transform="translate(0.0390625)"/>
</clipPath>
</defs>
</svg>
