<svg width="18" height="17" viewBox="0 0 18 17" fill="none" xmlns="http://www.w3.org/2000/svg">
<g clip-path="url(#clip0)">
<path d="M9.39771 0.118164C11.7195 0.118164 13.7002 0.937994 15.3398 2.57766C16.9795 4.21732 17.7993 6.19147 17.7993 8.50011C17.7993 10.8088 16.9795 12.7829 15.3398 14.4226C13.7002 16.0622 11.7195 16.8821 9.39771 16.8821C7.07595 16.8821 5.09524 16.0622 3.45558 14.4226C1.81592 12.7829 0.996094 10.8088 0.996094 8.50011C0.996094 6.19147 1.81592 4.21732 3.45558 2.57766C5.09524 0.937994 7.07595 0.118164 9.39771 0.118164ZM9.39771 15.2293C11.2473 15.2293 12.8279 14.5734 14.1396 13.2617C15.4513 11.95 16.1072 10.3628 16.1072 8.50011C16.1072 6.63745 15.4513 5.05026 14.1396 3.73853C12.8279 2.42681 11.2473 1.77094 9.39771 1.77094C7.54818 1.77094 5.96754 2.42681 4.65582 3.73853C3.34409 5.05026 2.68822 6.63745 2.68822 8.50011C2.68822 10.3628 3.34409 11.95 4.65582 13.2617C5.96754 14.5734 7.54818 15.2293 9.39771 15.2293ZM9.81091 4.28946V8.69687L13.5887 10.9399L12.9591 12.0024L8.55165 9.3265V4.28946H9.81091Z" fill="black"/>
</g>
<defs>
<clipPath id="clip0">
<rect width="17" height="17" fill="white" transform="translate(0.996094)"/>
</clipPath>
</defs>
</svg>
