<svg width="19" height="18" viewBox="0 0 19 18" fill="none" xmlns="http://www.w3.org/2000/svg">
<path d="M9.99609 10.125C9.43984 10.125 8.89607 9.96005 8.43355 9.65101C7.97104 9.34197 7.61056 8.90272 7.39768 8.3888C7.18481 7.87488 7.12912 7.30938 7.23764 6.76381C7.34616 6.21824 7.61402 5.7171 8.00736 5.32376C8.40069 4.93043 8.90183 4.66256 9.4474 4.55404C9.99298 4.44552 10.5585 4.50122 11.0724 4.71409C11.5863 4.92696 12.0256 5.28745 12.3346 5.74996C12.6436 6.21247 12.8086 6.75624 12.8086 7.3125C12.8077 8.05815 12.5111 8.773 11.9838 9.30025C11.4566 9.82751 10.7417 10.1241 9.99609 10.125ZM9.99609 5.625C9.66234 5.625 9.33608 5.72397 9.05857 5.9094C8.78106 6.09482 8.56477 6.35837 8.43705 6.66672C8.30933 6.97507 8.27591 7.31437 8.34102 7.64172C8.40613 7.96906 8.56685 8.26974 8.80285 8.50574C9.03885 8.74174 9.33954 8.90246 9.66688 8.96758C9.99422 9.03269 10.3335 8.99927 10.6419 8.87155C10.9502 8.74382 11.2138 8.52753 11.3992 8.25003C11.5846 7.97252 11.6836 7.64626 11.6836 7.3125C11.6831 6.86509 11.5052 6.43612 11.1888 6.11975C10.8725 5.80338 10.4435 5.62545 9.99609 5.625Z" fill="black"/>
<path d="M9.9961 16.875L5.25085 11.2787C5.18491 11.1947 5.11966 11.1101 5.0551 11.025C4.24453 9.95725 3.80664 8.65306 3.8086 7.3125C3.8086 5.67147 4.4605 4.09766 5.62088 2.93728C6.78126 1.7769 8.35507 1.125 9.9961 1.125C11.6371 1.125 13.2109 1.7769 14.3713 2.93728C15.5317 4.09766 16.1836 5.67147 16.1836 7.3125C16.1856 8.65245 15.7479 9.95605 14.9377 11.0233L14.9371 11.025C14.9371 11.025 14.7683 11.2466 14.743 11.2764L9.9961 16.875ZM5.95285 10.3472C5.95398 10.3472 6.08448 10.5204 6.11429 10.5576L9.9961 15.1358L13.883 10.5514C13.9077 10.5204 14.0393 10.3461 14.0399 10.3455C14.7021 9.47313 15.0599 8.4077 15.0586 7.3125C15.0586 5.96984 14.5252 4.68217 13.5758 3.73277C12.6264 2.78337 11.3388 2.25 9.9961 2.25C8.65344 2.25 7.36577 2.78337 6.41637 3.73277C5.46697 4.68217 4.9336 5.96984 4.9336 7.3125C4.93242 8.40838 5.29066 9.47442 5.95341 10.3472H5.95285Z" fill="black"/>
</svg>
