<svg width="15" height="14" viewBox="0 0 15 14" fill="none" xmlns="http://www.w3.org/2000/svg">
<path d="M7.11458 10.2087C7.34665 10.2087 7.56921 10.3008 7.7333 10.4649C7.8974 10.629 7.98958 10.8516 7.98958 11.0837C7.98958 11.3157 7.8974 11.5383 7.7333 11.7024C7.56921 11.8665 7.34665 11.9587 7.11458 11.9587C6.88252 11.9587 6.65996 11.8665 6.49587 11.7024C6.33177 11.5383 6.23958 11.3157 6.23958 11.0837C6.23958 10.8516 6.33177 10.629 6.49587 10.4649C6.65996 10.3008 6.88252 10.2087 7.11458 10.2087ZM11.1979 10.2087C11.43 10.2087 11.6525 10.3008 11.8166 10.4649C11.9807 10.629 12.0729 10.8516 12.0729 11.0837C12.0729 11.3157 11.9807 11.5383 11.8166 11.7024C11.6525 11.8665 11.43 11.9587 11.1979 11.9587C10.9659 11.9587 10.7433 11.8665 10.5792 11.7024C10.4151 11.5383 10.3229 11.3157 10.3229 11.0837C10.3229 10.8516 10.4151 10.629 10.5792 10.4649C10.7433 10.3008 10.9659 10.2087 11.1979 10.2087ZM3.03125 10.2087C3.26331 10.2087 3.48587 10.3008 3.64997 10.4649C3.81406 10.629 3.90625 10.8516 3.90625 11.0837C3.90625 11.3157 3.81406 11.5383 3.64997 11.7024C3.48587 11.8665 3.26331 11.9587 3.03125 11.9587C2.79919 11.9587 2.57663 11.8665 2.41253 11.7024C2.24844 11.5383 2.15625 11.3157 2.15625 11.0837C2.15625 10.8516 2.24844 10.629 2.41253 10.4649C2.57663 10.3008 2.79919 10.2087 3.03125 10.2087ZM7.11458 6.12533C7.34665 6.12533 7.56921 6.21751 7.7333 6.38161C7.8974 6.5457 7.98958 6.76826 7.98958 7.00033C7.98958 7.23239 7.8974 7.45495 7.7333 7.61904C7.56921 7.78314 7.34665 7.87533 7.11458 7.87533C6.88252 7.87533 6.65996 7.78314 6.49587 7.61904C6.33177 7.45495 6.23958 7.23239 6.23958 7.00033C6.23958 6.76826 6.33177 6.5457 6.49587 6.38161C6.65996 6.21751 6.88252 6.12533 7.11458 6.12533ZM11.1979 6.12533C11.43 6.12533 11.6525 6.21751 11.8166 6.38161C11.9807 6.5457 12.0729 6.76826 12.0729 7.00033C12.0729 7.23239 11.9807 7.45495 11.8166 7.61904C11.6525 7.78314 11.43 7.87533 11.1979 7.87533C10.9659 7.87533 10.7433 7.78314 10.5792 7.61904C10.4151 7.45495 10.3229 7.23239 10.3229 7.00033C10.3229 6.76826 10.4151 6.5457 10.5792 6.38161C10.7433 6.21751 10.9659 6.12533 11.1979 6.12533ZM3.03125 6.12533C3.26331 6.12533 3.48587 6.21751 3.64997 6.38161C3.81406 6.5457 3.90625 6.76826 3.90625 7.00033C3.90625 7.23239 3.81406 7.45495 3.64997 7.61904C3.48587 7.78314 3.26331 7.87533 3.03125 7.87533C2.79919 7.87533 2.57663 7.78314 2.41253 7.61904C2.24844 7.45495 2.15625 7.23239 2.15625 7.00033C2.15625 6.76826 2.24844 6.5457 2.41253 6.38161C2.57663 6.21751 2.79919 6.12533 3.03125 6.12533ZM7.11458 2.04199C7.34665 2.04199 7.56921 2.13418 7.7333 2.29827C7.8974 2.46237 7.98958 2.68493 7.98958 2.91699C7.98958 3.14906 7.8974 3.37162 7.7333 3.53571C7.56921 3.69981 7.34665 3.79199 7.11458 3.79199C6.88252 3.79199 6.65996 3.69981 6.49587 3.53571C6.33177 3.37162 6.23958 3.14906 6.23958 2.91699C6.23958 2.68493 6.33177 2.46237 6.49587 2.29827C6.65996 2.13418 6.88252 2.04199 7.11458 2.04199ZM11.1979 2.04199C11.43 2.04199 11.6525 2.13418 11.8166 2.29827C11.9807 2.46237 12.0729 2.68493 12.0729 2.91699C12.0729 3.14906 11.9807 3.37162 11.8166 3.53571C11.6525 3.69981 11.43 3.79199 11.1979 3.79199C10.9659 3.79199 10.7433 3.69981 10.5792 3.53571C10.4151 3.37162 10.3229 3.14906 10.3229 2.91699C10.3229 2.68493 10.4151 2.46237 10.5792 2.29827C10.7433 2.13418 10.9659 2.04199 11.1979 2.04199ZM3.03125 2.04199C3.26331 2.04199 3.48587 2.13418 3.64997 2.29827C3.81406 2.46237 3.90625 2.68493 3.90625 2.91699C3.90625 3.14906 3.81406 3.37162 3.64997 3.53571C3.48587 3.69981 3.26331 3.79199 3.03125 3.79199C2.79919 3.79199 2.57663 3.69981 2.41253 3.53571C2.24844 3.37162 2.15625 3.14906 2.15625 2.91699C2.15625 2.68493 2.24844 2.46237 2.41253 2.29827C2.57663 2.13418 2.79919 2.04199 3.03125 2.04199Z" fill="black"/>
</svg>
