<svg width="12" height="8" viewBox="0 0 12 8" fill="none" xmlns="http://www.w3.org/2000/svg">
<path fill-rule="evenodd" clip-rule="evenodd" d="M1.23141 1.16236C0.99118 1.40526 0.856445 1.73311 0.856445 2.07475C0.856445 2.41638 0.99118 2.74423 1.23141 2.98714L5.01086 6.80002C5.2912 7.07651 5.65384 7.21411 6.01262 7.21411C6.37141 7.21411 6.72762 7.07651 7.00153 6.80002L10.7694 3C11.0093 2.75693 11.1438 2.42914 11.1438 2.08761C11.1438 1.74608 11.0093 1.41829 10.7694 1.17522C10.6513 1.05538 10.5106 0.960226 10.3554 0.895274C10.2002 0.830323 10.0336 0.796875 9.86537 0.796875C9.69713 0.796875 9.53057 0.830323 9.37537 0.895274C9.22017 0.960226 9.07943 1.05538 8.96134 1.17522L6.00619 4.1548L3.03947 1.16236C2.92112 1.04299 2.78029 0.948247 2.62513 0.88359C2.46997 0.818933 2.30354 0.785645 2.13544 0.785645C1.96734 0.785645 1.80091 0.818933 1.64575 0.88359C1.49059 0.948247 1.34976 1.04299 1.23141 1.16236Z" fill="#252525"/>
</svg>
