<svg width="20" height="20" viewBox="0 0 20 20" fill="none" xmlns="http://www.w3.org/2000/svg">
<path d="M2.99961 0.600098C1.67413 0.600098 0.599609 1.67461 0.599609 3.0001V15.0001C0.599609 16.3256 1.67413 17.4001 2.99961 17.4001H8.06417L8.31757 16.3865C8.33324 16.3239 8.35045 16.2617 8.3692 16.2001H2.99961C2.33687 16.2001 1.79961 15.6629 1.79961 15.0001V3.0001C1.79961 2.33736 2.33687 1.8001 2.99961 1.8001H14.9996C15.6624 1.8001 16.1996 2.33736 16.1996 3.0001V8.07805C16.5829 7.91382 16.9899 7.82237 17.3996 7.80369V3.0001C17.3996 1.67461 16.3251 0.600098 14.9996 0.600098H2.99961ZM8.39961 13.8001H10.1308L11.3308 12.6001H8.39961C8.06824 12.6001 7.79961 12.8688 7.79961 13.2001C7.79961 13.5314 8.06824 13.8001 8.39961 13.8001ZM5.99961 5.7001C5.99961 6.19715 5.59666 6.6001 5.09961 6.6001C4.60256 6.6001 4.19961 6.19715 4.19961 5.7001C4.19961 5.20305 4.60256 4.8001 5.09961 4.8001C5.59666 4.8001 5.99961 5.20305 5.99961 5.7001ZM5.09961 10.2001C5.59666 10.2001 5.99961 9.79714 5.99961 9.3001C5.99961 8.80305 5.59666 8.4001 5.09961 8.4001C4.60256 8.4001 4.19961 8.80305 4.19961 9.3001C4.19961 9.79714 4.60256 10.2001 5.09961 10.2001ZM5.09961 13.8001C5.59666 13.8001 5.99961 13.3971 5.99961 12.9001C5.99961 12.4031 5.59666 12.0001 5.09961 12.0001C4.60256 12.0001 4.19961 12.4031 4.19961 12.9001C4.19961 13.3971 4.60256 13.8001 5.09961 13.8001ZM8.39961 5.4001C8.06824 5.4001 7.79961 5.66873 7.79961 6.0001C7.79961 6.33147 8.06824 6.6001 8.39961 6.6001H13.1996C13.5309 6.6001 13.7996 6.33147 13.7996 6.0001C13.7996 5.66873 13.5309 5.4001 13.1996 5.4001H8.39961ZM8.39961 9.0001C8.06824 9.0001 7.79961 9.26878 7.79961 9.6001C7.79961 9.93142 8.06824 10.2001 8.39961 10.2001H13.1996C13.5309 10.2001 13.7996 9.93142 13.7996 9.6001C13.7996 9.26878 13.5309 9.0001 13.1996 9.0001H8.39961ZM10.1753 15.4527L15.9706 9.65741C16.847 8.78099 18.268 8.78099 19.1444 9.65741C20.0208 10.5338 20.0208 11.9548 19.1444 12.8312L13.3491 18.6265C13.0112 18.9644 12.5878 19.2041 12.1243 19.32L10.3268 19.7694C9.54508 19.9648 8.83703 19.2567 9.03245 18.475L9.48182 16.6776C9.59772 16.214 9.83742 15.7906 10.1753 15.4527Z" fill="#212121"/>
</svg>
