<svg width="16" height="16" viewBox="0 0 16 16" fill="none" xmlns="http://www.w3.org/2000/svg">
<path d="M11.2452 0.817547C12.332 -0.26926 14.0941 -0.26926 15.1809 0.817547C16.2224 1.85907 16.2658 3.52075 15.3111 4.61395L15.1809 4.75322L5.57506 14.359C5.36997 14.5641 5.12323 14.7217 4.85236 14.8215L4.68708 14.8744L0.632111 15.9803C0.285522 16.0748 -0.0345414 15.7862 0.00300655 15.4457L0.0181704 15.3663L1.12407 11.3113C1.20039 11.0315 1.33646 10.7723 1.52212 10.5513L1.63939 10.4234L11.2452 0.817547ZM10.385 3.09244L2.34649 11.1305C2.2542 11.2228 2.18117 11.3319 2.13111 11.4516L2.08884 11.5745L1.2122 14.7852L4.42397 13.9096C4.50791 13.8867 4.58815 13.853 4.66278 13.8097L4.77028 13.7377L4.86796 13.6519L12.906 5.61344L10.385 3.09244ZM14.4738 1.52465C13.8162 0.867053 12.7727 0.83052 12.0722 1.41505L11.9523 1.52465L11.092 2.38544L13.613 4.90644L14.4738 4.04612C15.1314 3.38852 15.1679 2.34503 14.5834 1.64456L14.4738 1.52465Z" fill="#212121"/>
</svg>
