<svg width="13" height="10" viewBox="0 0 13 10" fill="none" xmlns="http://www.w3.org/2000/svg">
<path d="M0.00292969 3.03807V8C0.00292969 9.10457 0.89836 10 2.00293 10H10.0029C11.1075 10 12.0029 9.10457 12.0029 8V2C12.0029 0.895431 11.1075 0 10.0029 0H2.00293C0.89836 0 0.00292969 0.89543 0.00292969 2V3.03807C0.00292969 3.03804 0.00292969 3.03809 0.00292969 3.03807ZM2.00293 1H10.0029C10.5552 1 11.0029 1.44772 11.0029 2V2.73987L6.00303 5.43212L1.00293 2.73976V2C1.00293 1.44772 1.45064 1 2.00293 1ZM1.00293 3.87552L5.76598 6.44024C5.91396 6.51992 6.09209 6.51992 6.24008 6.44024L11.0029 3.87562V8C11.0029 8.55229 10.5552 9 10.0029 9H2.00293C1.45065 9 1.00293 8.55228 1.00293 8V3.87552Z" fill="#212121"/>
</svg>
