<svg width="38" height="39" viewBox="0 0 38 39" fill="none" xmlns="http://www.w3.org/2000/svg">
<path d="M36.25 0.589355H1.75C0.920312 0.589355 0.25 1.25967 0.25 2.08936V36.5894C0.25 37.419 0.920312 38.0894 1.75 38.0894H36.25C37.0797 38.0894 37.75 37.419 37.75 36.5894V2.08936C37.75 1.25967 37.0797 0.589355 36.25 0.589355ZM31.9187 11.5347H28.9234C26.575 11.5347 26.1203 12.6503 26.1203 14.2909V17.905H31.7266L30.9953 23.5628H26.1203V38.0894H20.275V23.5675H15.3859V17.905H20.275V13.7331C20.275 8.89092 23.2328 6.25186 27.5547 6.25186C29.6266 6.25186 31.4031 6.40654 31.9234 6.47686V11.5347H31.9187Z" fill="black"/>
</svg>
