<svg width="18" height="18" viewBox="0 0 18 18" fill="none" xmlns="http://www.w3.org/2000/svg">
<path d="M2.28906 0.75C1.46856 0.75 0.789062 1.4295 0.789062 2.25V15.75C0.789062 16.5705 1.46856 17.25 2.28906 17.25H15.7891C16.6096 17.25 17.2891 16.5705 17.2891 15.75V2.25C17.2891 1.4295 16.6096 0.75 15.7891 0.75H2.28906ZM2.28906 2.25H15.7891V15.75H11.8981V10.6875H13.8436L14.1248 8.4375H11.8988V6.984C11.8988 6.3285 12.0593 5.883 12.9998 5.883H14.2186V3.84375C14.0108 3.8175 13.2901 3.77325 12.4613 3.77325C10.7326 3.77325 9.55506 4.8135 9.55506 6.75V8.4375H7.58631V10.6875H9.55431V15.75H2.28906V2.25Z" fill="black"/>
</svg>
