<svg width="38" height="39" viewBox="0 0 38 39" fill="none" xmlns="http://www.w3.org/2000/svg">
<path d="M36.25 0.589355H1.75C0.920312 0.589355 0.25 1.25967 0.25 2.08936V36.5894C0.25 37.419 0.920312 38.0894 1.75 38.0894H36.25C37.0797 38.0894 37.75 37.419 37.75 36.5894V2.08936C37.75 1.25967 37.0797 0.589355 36.25 0.589355ZM26.8281 28.0394C24.925 29.7925 22.3281 30.8237 19.2297 30.8237C14.7438 30.8237 10.8625 28.2503 8.97344 24.5003C8.16855 22.899 7.74956 21.1316 7.75 19.3394C7.75 17.4831 8.19531 15.73 8.97344 14.1784C10.8625 10.4237 14.7438 7.85029 19.2297 7.85029C22.3234 7.85029 24.9203 8.98936 26.9125 10.8409L23.6219 14.1362C22.4312 12.9972 20.9172 12.4206 19.2344 12.4206C16.2437 12.4206 13.7125 14.4409 12.8078 17.155C12.5781 17.844 12.4469 18.58 12.4469 19.3394C12.4469 20.0987 12.5781 20.8347 12.8078 21.5237C13.7125 24.2378 16.2438 26.2581 19.2297 26.2581C20.7766 26.2581 22.0891 25.8503 23.1156 25.1612C24.3344 24.3456 25.1406 23.1315 25.4078 21.6925H19.2297V17.2487H30.0437C30.1797 18.0034 30.25 18.7862 30.25 19.5972C30.25 23.0987 28.9984 26.0378 26.8281 28.0394Z" fill="black"/>
</svg>
