<svg width="20" height="22" viewBox="0 0 20 22" fill="none" xmlns="http://www.w3.org/2000/svg">
<path d="M10.5634 5.39844H9.43607C9.33294 5.39844 9.24857 5.48282 9.24857 5.58594V12.0383C9.24857 12.0992 9.27669 12.1555 9.32591 12.1906L13.2001 15.0195C13.2845 15.0805 13.4017 15.0641 13.4626 14.9797L14.1329 14.0656C14.1962 13.9789 14.1775 13.8617 14.0931 13.8031L10.7509 11.3867V5.58594C10.7509 5.48282 10.6665 5.39844 10.5634 5.39844ZM15.715 7.16094L19.39 8.0586C19.5072 8.08672 19.622 7.99766 19.622 7.87813L19.6408 4.09297C19.6408 3.93594 19.4603 3.84688 19.3384 3.94532L15.6447 6.83047C15.6167 6.85207 15.5955 6.8811 15.5833 6.91424C15.5712 6.94738 15.5686 6.98327 15.576 7.0178C15.5833 7.05232 15.6003 7.08407 15.6249 7.10939C15.6494 7.13471 15.6807 7.15258 15.715 7.16094ZM19.6454 14.218L18.3165 13.7609C18.2702 13.7451 18.2195 13.7479 18.1753 13.769C18.131 13.79 18.0968 13.8275 18.0798 13.8734C18.0353 13.993 17.9884 14.1102 17.9392 14.2273C17.522 15.2141 16.9243 16.1023 16.1603 16.8641C15.4047 17.622 14.5093 18.2261 13.5236 18.643C12.5025 19.0747 11.4048 19.2963 10.2962 19.2945C9.17591 19.2945 8.09075 19.0766 7.06888 18.643C6.08319 18.2261 5.18774 17.622 4.43216 16.8641C3.67044 16.1023 3.07279 15.2141 2.65325 14.2273C2.22392 13.2057 2.00395 12.1082 2.00638 11C2.00638 9.87969 2.22435 8.79219 2.65794 7.77032C3.07513 6.7836 3.67279 5.89532 4.43685 5.1336C5.19243 4.37567 6.08788 3.77154 7.07357 3.35469C8.09075 2.9211 9.17825 2.70313 10.2986 2.70313C11.4189 2.70313 12.504 2.9211 13.5259 3.35469C14.5116 3.77154 15.4071 4.37567 16.1626 5.1336C16.4017 5.375 16.6267 5.62578 16.8329 5.89063L18.2345 4.79375C16.39 2.43594 13.5189 0.919534 10.2939 0.921878C4.67825 0.924221 0.16888 5.48516 0.22513 11.1031C0.28138 16.6227 4.76966 21.0781 10.2986 21.0781C14.6462 21.0781 18.3493 18.3219 19.7603 14.4617C19.7954 14.3633 19.7439 14.2531 19.6454 14.218Z" fill="black"/>
</svg>
