<svg width="20" height="20" viewBox="0 0 20 20" fill="none" xmlns="http://www.w3.org/2000/svg">
<path d="M9 11C9 10.4477 9.44771 10 10 10C10.5523 10 11 10.4477 11 11V14C11 14.5523 10.5523 15 10 15C9.44771 15 9 14.5523 9 14V11ZM10 5.5C9.17157 5.5 8.5 6.17157 8.5 7C8.5 7.82843 9.17157 8.5 10 8.5C10.8284 8.5 11.5 7.82843 11.5 7C11.5 6.17157 10.8284 5.5 10 5.5ZM0 10C0 4.47715 4.47715 0 10 0C15.5228 0 20 4.47715 20 10C20 15.5228 15.5228 20 10 20C4.47715 20 0 15.5228 0 10ZM10 2C5.58172 2 2 5.58172 2 10C2 14.4183 5.58172 18 10 18C14.4183 18 18 14.4183 18 10C18 5.58172 14.4183 2 10 2Z" fill="#252525"/>
</svg>
