<svg width="12" height="12" viewBox="0 0 12 12" fill="none" xmlns="http://www.w3.org/2000/svg">
<path d="M11.8902 2.09875L9.90154 0.109912C9.75499 -0.0366373 9.51769 -0.0366373 9.37129 0.109912C9.22474 0.256311 9.22474 0.493759 9.37129 0.640159L9.60334 0.872207L7.4915 2.98389L7.25946 2.75185C7.11291 2.6053 6.87561 2.6053 6.72921 2.75185L2.17255 7.30867C1.55605 7.92501 1.46155 8.86656 1.8847 9.5852L0.109912 11.3598C-0.0366372 11.5062 -0.0366372 11.7437 0.109912 11.8901C0.256311 12.0366 0.493759 12.0366 0.640157 11.8901L2.38929 10.141C3.05349 10.6143 3.97268 10.5464 4.55888 9.96005L9.24829 5.27078C9.39364 5.13113 9.39349 4.88018 9.24829 4.74053L9.01624 4.50848L11.1278 2.39695L11.3598 2.629C11.5064 2.77555 11.7437 2.77555 11.8901 2.629C12.0366 2.4826 12.0366 2.24515 11.8902 2.09875ZM4.02863 9.4298C3.66293 9.79535 3.06819 9.79535 2.70279 9.4298C2.26419 8.99121 2.26419 8.27736 2.70279 7.83876L3.61418 6.92737L4.26998 7.58317C4.41638 7.72972 4.65383 7.72972 4.80023 7.58317C4.94677 7.43677 4.94677 7.19932 4.80023 7.05292L4.14443 6.39712L5.00572 5.53598L5.66152 6.19177C5.80792 6.33832 6.04537 6.33832 6.19176 6.19177C6.33831 6.04538 6.33831 5.80793 6.19176 5.66153L5.53597 5.00573L6.99441 3.54729L8.453 5.00573L4.02863 9.4298ZM8.486 3.97824L8.0219 3.51414L10.1336 1.4026L10.5977 1.8667L8.486 3.97824Z" fill="black"/>
</svg>
