<svg width="19" height="19" viewBox="0 0 19 19" fill="none" xmlns="http://www.w3.org/2000/svg">
<path fill-rule="evenodd" clip-rule="evenodd" d="M5.90117 0.555488C6.87867 0.510488 7.19034 0.500488 9.68034 0.500488C12.1703 0.500488 12.482 0.511322 13.4587 0.555488C14.4353 0.599655 15.102 0.755488 15.6853 0.981322C16.2962 1.21215 16.8503 1.57299 17.3087 2.03965C17.7753 2.49715 18.1353 3.05049 18.3653 3.66215C18.592 4.24549 18.747 4.91215 18.792 5.88715C18.837 6.86632 18.847 7.17799 18.847 9.66715C18.847 12.1572 18.8362 12.4688 18.792 13.4463C18.7478 14.4213 18.592 15.088 18.3653 15.6713C18.1353 16.2831 17.7747 16.8373 17.3087 17.2955C16.8503 17.7622 16.2962 18.1222 15.6853 18.3522C15.102 18.5788 14.4353 18.7338 13.4603 18.7788C12.482 18.8238 12.1703 18.8338 9.68034 18.8338C7.19034 18.8338 6.87867 18.823 5.90117 18.7788C4.92617 18.7347 4.2595 18.5788 3.67617 18.3522C3.06444 18.1221 2.51019 17.7615 2.05201 17.2955C1.58566 16.8377 1.22477 16.2837 0.994505 15.6722C0.768672 15.0888 0.613672 14.4222 0.568672 13.4472C0.523672 12.468 0.513672 12.1563 0.513672 9.66715C0.513672 7.17715 0.524505 6.86549 0.568672 5.88882C0.612839 4.91215 0.768672 4.24549 0.994505 3.66215C1.22511 3.05056 1.58627 2.49658 2.05284 2.03882C2.51037 1.57257 3.06406 1.21169 3.67534 0.981322C4.25867 0.755488 4.92534 0.600488 5.90034 0.555488H5.90117ZM13.3845 2.20549C12.4178 2.16132 12.1278 2.15215 9.68034 2.15215C7.23284 2.15215 6.94284 2.16132 5.97617 2.20549C5.082 2.24632 4.597 2.39549 4.27367 2.52132C3.84617 2.68799 3.54034 2.88549 3.21951 3.20632C2.91538 3.5022 2.68132 3.86239 2.5345 4.26049C2.40867 4.58382 2.25951 5.06882 2.21867 5.96299C2.1745 6.92965 2.16534 7.21965 2.16534 9.66715C2.16534 12.1147 2.1745 12.4047 2.21867 13.3713C2.25951 14.2655 2.40867 14.7505 2.5345 15.0738C2.68117 15.4713 2.91534 15.8322 3.21951 16.128C3.51534 16.4322 3.87617 16.6663 4.27367 16.813C4.597 16.9388 5.082 17.088 5.97617 17.1288C6.94284 17.173 7.232 17.1822 9.68034 17.1822C12.1287 17.1822 12.4178 17.173 13.3845 17.1288C14.2787 17.088 14.7637 16.9388 15.087 16.813C15.5145 16.6463 15.8203 16.4488 16.1412 16.128C16.4453 15.8322 16.6795 15.4713 16.8262 15.0738C16.952 14.7505 17.1012 14.2655 17.142 13.3713C17.1862 12.4047 17.1953 12.1147 17.1953 9.66715C17.1953 7.21965 17.1862 6.92965 17.142 5.96299C17.1012 5.06882 16.952 4.58382 16.8262 4.26049C16.6595 3.83299 16.462 3.52715 16.1412 3.20632C15.8453 2.90221 15.4851 2.66816 15.087 2.52132C14.7637 2.39549 14.2787 2.24632 13.3845 2.20549ZM8.5095 12.493C9.16339 12.7652 9.89149 12.8019 10.5694 12.5969C11.2474 12.3919 11.8332 11.9579 12.2267 11.369C12.6202 10.7801 12.7971 10.0729 12.727 9.36807C12.657 8.66327 12.3445 8.00463 11.8428 7.50465C11.523 7.18505 11.1363 6.94033 10.7106 6.78811C10.2849 6.63589 9.8307 6.57995 9.38075 6.62433C8.93081 6.66871 8.4963 6.8123 8.10851 7.04476C7.72072 7.27722 7.38929 7.59277 7.13809 7.9687C6.88689 8.34462 6.72216 8.77156 6.65577 9.21879C6.58937 9.66601 6.62296 10.1224 6.75412 10.5551C6.88528 10.9878 7.11074 11.386 7.41427 11.7211C7.7178 12.0562 8.09186 12.3198 8.5095 12.493ZM6.34867 6.33549C6.78619 5.89797 7.3056 5.55091 7.87725 5.31412C8.4489 5.07734 9.06159 4.95547 9.68034 4.95547C10.2991 4.95547 10.9118 5.07734 11.4834 5.31412C12.0551 5.55091 12.5745 5.89797 13.012 6.33549C13.4495 6.77301 13.7966 7.29242 14.0334 7.86407C14.2702 8.43572 14.392 9.04841 14.392 9.66715C14.392 10.2859 14.2702 10.8986 14.0334 11.4702C13.7966 12.0419 13.4495 12.5613 13.012 12.9988C12.1284 13.8824 10.93 14.3788 9.68034 14.3788C8.43072 14.3788 7.23228 13.8824 6.34867 12.9988C5.46506 12.1152 4.96865 10.9168 4.96865 9.66715C4.96865 8.41754 5.46506 7.2191 6.34867 6.33549ZM15.437 5.65715C15.5454 5.55488 15.6322 5.43189 15.6923 5.29547C15.7523 5.15904 15.7843 5.01196 15.7865 4.86293C15.7887 4.7139 15.7609 4.56594 15.7049 4.42783C15.6489 4.28972 15.5657 4.16425 15.4603 4.05885C15.3549 3.95346 15.2294 3.87029 15.0913 3.81425C14.9532 3.75822 14.8053 3.73047 14.6562 3.73264C14.5072 3.73481 14.3601 3.76687 14.2237 3.8269C14.0873 3.88694 13.9643 3.97373 13.862 4.08215C13.6631 4.29301 13.5542 4.57309 13.5584 4.86293C13.5626 5.15277 13.6797 5.42955 13.8846 5.63452C14.0896 5.83949 14.3664 5.95651 14.6562 5.96074C14.9461 5.96496 15.2261 5.85606 15.437 5.65715Z" fill="black"/>
</svg>
