<svg width="6" height="12" viewBox="0 0 6 12" fill="none" xmlns="http://www.w3.org/2000/svg">
<path d="M5.83438 6.00009C5.83476 6.1948 5.76694 6.3835 5.64271 6.53343L1.47604 11.5334C1.33459 11.7036 1.13134 11.8106 0.91098 11.8309C0.690625 11.8513 0.471224 11.7832 0.301043 11.6418C0.130863 11.5003 0.0238427 11.2971 0.00352626 11.0767C-0.0167902 10.8563 0.051261 10.6369 0.19271 10.4668L3.92604 6.00009L0.326044 1.53343C0.256822 1.44819 0.205129 1.35011 0.173936 1.24482C0.142743 1.13954 0.132665 1.02913 0.144281 0.919941C0.155897 0.810751 0.188977 0.704932 0.241622 0.608568C0.294267 0.512204 0.365438 0.427195 0.451043 0.358426C0.536728 0.282109 0.63725 0.22431 0.746311 0.188649C0.855372 0.152988 0.970623 0.140237 1.08484 0.151189C1.19906 0.162142 1.30979 0.196564 1.41009 0.252299C1.51038 0.308035 1.59809 0.383884 1.66771 0.475094L5.69271 5.47509C5.79731 5.62933 5.84718 5.81418 5.83438 6.00009Z" fill="#F6F4F2"/>
</svg>
