<svg width="17" height="17" viewBox="0 0 17 17" fill="none" xmlns="http://www.w3.org/2000/svg">
<path d="M8.03906 9.5C7.54461 9.5 7.06126 9.35338 6.65014 9.07868C6.23902 8.80397 5.91858 8.41352 5.72936 7.95671C5.54015 7.49989 5.49064 6.99723 5.5871 6.51228C5.68356 6.02732 5.92167 5.58187 6.2713 5.23223C6.62093 4.8826 7.06639 4.6445 7.55134 4.54804C8.03629 4.45157 8.53896 4.50108 8.99577 4.6903C9.45259 4.87952 9.84303 5.19995 10.1177 5.61108C10.3924 6.0222 10.5391 6.50555 10.5391 7C10.5383 7.6628 10.2746 8.29822 9.80595 8.76689C9.33729 9.23556 8.70186 9.49921 8.03906 9.5ZM8.03906 5.5C7.74239 5.5 7.45238 5.58797 7.20571 5.7528C6.95903 5.91762 6.76678 6.15189 6.65324 6.42598C6.53971 6.70007 6.51001 7.00167 6.56789 7.29264C6.62576 7.58361 6.76862 7.85088 6.9784 8.06066C7.18818 8.27044 7.45546 8.4133 7.74643 8.47118C8.0374 8.52906 8.339 8.49935 8.61309 8.38582C8.88718 8.27229 9.12145 8.08003 9.28627 7.83336C9.45109 7.58668 9.53906 7.29667 9.53906 7C9.53867 6.6023 9.3805 6.221 9.09929 5.93978C8.81807 5.65856 8.43677 5.5004 8.03906 5.5Z" fill="black"/>
<path d="M8.03907 15.5L3.82107 10.5255C3.76246 10.4508 3.70446 10.3756 3.64707 10.3C2.92656 9.35089 2.53732 8.19161 2.53907 7C2.53907 5.54131 3.11853 4.14236 4.14998 3.11091C5.18143 2.07946 6.58038 1.5 8.03907 1.5C9.49776 1.5 10.8967 2.07946 11.9282 3.11091C12.9596 4.14236 13.5391 5.54131 13.5391 7C13.5408 8.19107 13.1518 9.34982 12.4316 10.2985L12.4311 10.3C12.4311 10.3 12.2811 10.497 12.2586 10.5235L8.03907 15.5ZM4.44507 9.6975C4.44607 9.6975 4.56207 9.8515 4.58857 9.8845L8.03907 13.954L11.4941 9.879C11.5161 9.8515 11.6331 9.6965 11.6336 9.696C12.2221 8.92056 12.5402 7.97352 12.5391 7C12.5391 5.80653 12.065 4.66193 11.221 3.81802C10.3771 2.97411 9.23254 2.5 8.03907 2.5C6.84559 2.5 5.701 2.97411 4.85709 3.81802C4.01317 4.66193 3.53907 5.80653 3.53907 7C3.53802 7.97412 3.85646 8.92171 4.44557 9.6975H4.44507Z" fill="black"/>
</svg>
