<svg width="13" height="14" viewBox="0 0 13 14" fill="none" xmlns="http://www.w3.org/2000/svg">
<path d="M6.00195 -0.000488281C9.31566 -0.000488281 12.002 2.6858 12.002 5.99951C12.002 8.48301 10.1089 11.086 6.40195 13.8662C6.16492 14.044 5.83899 14.044 5.60195 13.8662C1.89503 11.086 0.00195312 8.48301 0.00195312 5.99951C0.00195312 2.6858 2.68824 -0.000488281 6.00195 -0.000488281ZM6.00195 1.33285C3.42462 1.33285 1.33529 3.42218 1.33529 5.99951C1.33529 7.80675 2.74736 9.89001 5.6335 12.2041L6.00195 12.4945L6.3704 12.2041C9.25655 9.89001 10.6686 7.80675 10.6686 5.99951C10.6686 3.42218 8.57928 1.33285 6.00195 1.33285ZM6.00195 4.66618C6.73833 4.66618 7.33529 5.26313 7.33529 5.99951C7.33529 6.73589 6.73833 7.33285 6.00195 7.33285C5.26557 7.33285 4.66862 6.73589 4.66862 5.99951C4.66862 5.26313 5.26557 4.66618 6.00195 4.66618Z" fill="#212121"/>
</svg>
