<svg width="114" height="58" viewBox="0 0 114 58" fill="none" xmlns="http://www.w3.org/2000/svg">
<rect y="12" width="11" height="11" fill="black"/>
<rect x="11" y="12" width="12" height="11" fill="black"/>
<rect y="23" width="11" height="12" fill="black"/>
<rect y="35" width="11" height="11" fill="black"/>
<rect x="11" y="35" width="12" height="11" fill="black"/>
<rect x="23" y="35" width="11" height="11" fill="black"/>
<rect x="46" y="35" width="11" height="11" fill="black"/>
<rect x="46" y="23" width="11" height="12" fill="black"/>
<rect x="57" y="12" width="12" height="11" fill="black"/>
<rect x="80" y="12" width="11" height="11" fill="black"/>
<rect x="91" y="12" width="12" height="11" fill="black"/>
<rect x="103" y="12" width="11" height="11" fill="black"/>
<rect x="103" y="23" width="11" height="12" fill="black"/>
<rect x="103" y="35" width="11" height="11" fill="black"/>
<rect x="91" y="35" width="12" height="11" fill="black"/>
<rect x="80" y="23" width="11" height="12" fill="black"/>
<rect x="80" width="11" height="12" fill="black"/>
<rect x="23" y="46" width="11" height="12" fill="black"/>
<rect x="23" y="23" width="11" height="12" fill="black"/>
</svg>
