<svg width="18" height="18" viewBox="0 0 18 18" fill="none" xmlns="http://www.w3.org/2000/svg">
<path d="M3.8385 1.6263L4.8708 3.1014C3.61637 3.97959 2.67458 5.23485 2.18227 6.68484C1.68995 8.13482 1.67274 9.70401 2.13314 11.1644C2.59354 12.6249 3.50756 13.9005 4.74244 14.806C5.97731 15.7115 7.46872 16.1997 9 16.1997C10.5313 16.1997 12.0227 15.7115 13.2576 14.806C14.4924 13.9005 15.4065 12.6249 15.8669 11.1644C16.3273 9.70401 16.3101 8.13482 15.8177 6.68484C15.3254 5.23485 14.3836 3.97959 13.1292 3.1014L14.1615 1.6263C15.3477 2.45558 16.316 3.55901 16.9843 4.84278C17.6526 6.12655 18.001 7.5527 18 9C18 13.9707 13.9707 18 9 18C4.0293 18 2.33121e-06 13.9707 2.33121e-06 9C-0.00103989 7.5527 0.347393 6.12655 1.01568 4.84278C1.68397 3.55901 2.65235 2.45558 3.8385 1.6263ZM8.1 9V0H9.9V9H8.1Z" fill="#252525"/>
</svg>
