<svg width="19" height="19" viewBox="0 0 19 19" fill="none" xmlns="http://www.w3.org/2000/svg">
<path d="M15.5391 4H2.53906C2.2625 4 2.03906 4.22344 2.03906 4.5V14.5C2.03906 14.7766 2.2625 15 2.53906 15H15.5391C15.8156 15 16.0391 14.7766 16.0391 14.5V4.5C16.0391 4.22344 15.8156 4 15.5391 4ZM14.9141 5.73125V13.875H3.16406V5.73125L2.73281 5.39531L3.34687 4.60625L4.01562 5.12656H14.0641L14.7328 4.60625L15.3469 5.39531L14.9141 5.73125ZM14.0641 5.125L9.03906 9.03125L4.01406 5.125L3.34531 4.60469L2.73125 5.39375L3.1625 5.72969L8.5 9.87969C8.6535 9.99894 8.84234 10.0637 9.03672 10.0637C9.2311 10.0637 9.41994 9.99894 9.57344 9.87969L14.9141 5.73125L15.3453 5.39531L14.7312 4.60625L14.0641 5.125Z" fill="black"/>
</svg>
