<svg width="8" height="14" viewBox="0 0 8 14" fill="none" xmlns="http://www.w3.org/2000/svg">
<path d="M3.33333 9.66683C2.96514 9.66683 2.66667 9.96531 2.66667 10.3335C2.66667 10.7017 2.96514 11.0002 3.33333 11.0002H4.66667C5.03486 11.0002 5.33333 10.7017 5.33333 10.3335C5.33333 9.96531 5.03486 9.66683 4.66667 9.66683H3.33333ZM2 0.333496C0.895431 0.333496 0 1.22893 0 2.3335V11.6668C0 12.7714 0.89543 13.6668 2 13.6668H6C7.10457 13.6668 8 12.7714 8 11.6668V2.3335C8 1.22893 7.10457 0.333496 6 0.333496H2ZM1.33333 2.3335C1.33333 1.96531 1.63181 1.66683 2 1.66683H6C6.36819 1.66683 6.66667 1.96531 6.66667 2.3335V11.6668C6.66667 12.035 6.36819 12.3335 6 12.3335H2C1.63181 12.3335 1.33333 12.035 1.33333 11.6668V2.3335Z" fill="#212121"/>
</svg>
