<svg width="38" height="39" viewBox="0 0 38 39" fill="none" xmlns="http://www.w3.org/2000/svg">
<path d="M33.9286 0.339355H4.07143C2.99162 0.339355 1.95603 0.768308 1.19249 1.53185C0.428953 2.29539 0 3.33097 0 4.41078L0 34.2679C0 35.3477 0.428953 36.3833 1.19249 37.1469C1.95603 37.9104 2.99162 38.3394 4.07143 38.3394H33.9286C35.0084 38.3394 36.044 37.9104 36.8075 37.1469C37.571 36.3833 38 35.3477 38 34.2679V4.41078C38 3.33097 37.571 2.29539 36.8075 1.53185C36.044 0.768308 35.0084 0.339355 33.9286 0.339355ZM32.5383 26.4109L31.266 31.9243C31.2014 32.2046 31.0437 32.4547 30.8186 32.6339C30.5936 32.8131 30.3144 32.9107 30.0268 32.9108C16.4554 32.9108 5.42857 21.9086 5.42857 8.31257C5.43867 8.02762 5.53996 7.75343 5.71754 7.53034C5.89512 7.30726 6.13961 7.14707 6.41504 7.07333L11.9284 5.80101C12.0225 5.78112 12.1182 5.77004 12.2143 5.76793C12.4603 5.78035 12.6986 5.8584 12.9042 5.99398C13.1099 6.12956 13.2756 6.31773 13.384 6.53895L15.9286 12.4765C15.9909 12.6365 16.0256 12.806 16.0312 12.9777C16.0105 13.3544 15.8431 13.7079 15.5647 13.9625L12.3508 16.592C14.2982 20.7193 17.62 24.0412 21.7474 25.9885L24.3768 22.7746C24.6314 22.4963 24.985 22.3288 25.3616 22.3081C25.5333 22.3136 25.7028 22.3483 25.8629 22.4107L31.8004 24.9554C32.0217 25.0636 32.21 25.2292 32.3456 25.435C32.4812 25.6407 32.5592 25.879 32.5714 26.1251C32.5697 26.2212 32.5587 26.3169 32.5383 26.4109Z" fill="black"/>
</svg>
