<svg width="14" height="10" viewBox="0 0 14 10" fill="none" xmlns="http://www.w3.org/2000/svg">
<path d="M0 1.75C0 0.783502 0.783502 0 1.75 0H12.25C13.2165 0 14 0.783502 14 1.75V8.25C14 9.2165 13.2165 10 12.25 10H1.75C0.783502 10 0 9.2165 0 8.25V1.75ZM1.75 1C1.33579 1 1 1.33579 1 1.75V8.25C1 8.66421 1.33579 9 1.75 9H12.25C12.6642 9 13 8.66421 13 8.25V1.75C13 1.33579 12.6642 1 12.25 1H1.75ZM8.5 3C8.22386 3 8 3.22386 8 3.5C8 3.77614 8.22386 4 8.5 4H11.5C11.7761 4 12 3.77614 12 3.5C12 3.22386 11.7761 3 11.5 3H8.5ZM8.5 6C8.22386 6 8 6.22386 8 6.5C8 6.77614 8.22386 7 8.5 7H11.5C11.7761 7 12 6.77614 12 6.5C12 6.22386 11.7761 6 11.5 6H8.5ZM4.26138 4.71366C5.01074 4.71366 5.61821 4.10619 5.61821 3.35683C5.61821 2.60747 5.01074 2 4.26138 2C3.51203 2 2.90455 2.60747 2.90455 3.35683C2.90455 4.10619 3.51203 4.71366 4.26138 4.71366ZM2.85823 5.39207C2.38424 5.39207 2 5.77632 2 6.2503C2 7.01668 2.52158 7.6847 3.26507 7.87057L3.31845 7.88392C3.93754 8.03869 4.58522 8.03869 5.20432 7.88392L5.2577 7.87057C6.00119 7.6847 6.52277 7.01668 6.52277 6.2503C6.52277 5.77632 6.13852 5.39207 5.66454 5.39207H2.85823Z" fill="#212121"/>
</svg>
