<svg width="20" height="14" viewBox="0 0 20 14" fill="none" xmlns="http://www.w3.org/2000/svg">
<path d="M0.253906 2.53054C0.253906 1.20146 1.33104 0.124023 2.65975 0.124023H17.0948C18.4235 0.124023 19.5007 1.20146 19.5007 2.53054V11.469C19.5007 12.7981 18.4235 13.8755 17.0948 13.8755H2.65975C1.33104 13.8755 0.253906 12.7981 0.253906 11.469V2.53054ZM2.65975 1.49917C2.09031 1.49917 1.62868 1.96093 1.62868 2.53054V11.469C1.62868 12.0386 2.09031 12.5004 2.65975 12.5004H17.0948C17.6643 12.5004 18.1259 12.0386 18.1259 11.469V2.53054C18.1259 1.96093 17.6643 1.49917 17.0948 1.49917H2.65975ZM11.9394 5.16624C11.5598 5.16624 11.2521 5.47408 11.2521 5.85382C11.2521 6.23355 11.5598 6.54139 11.9394 6.54139H16.0638C16.4434 6.54139 16.7511 6.23355 16.7511 5.85382C16.7511 5.47408 16.4434 5.16624 16.0638 5.16624H11.9394ZM11.9394 8.37493C11.5598 8.37493 11.2521 8.68276 11.2521 9.0625C11.2521 9.44224 11.5598 9.75008 11.9394 9.75008H16.0638C16.4434 9.75008 16.7511 9.44224 16.7511 9.0625C16.7511 8.68276 16.4434 8.37493 16.0638 8.37493H11.9394ZM6.11233 6.60601C7.14252 6.60601 7.97765 5.77065 7.97765 4.74017C7.97765 3.70969 7.14252 2.87432 6.11233 2.87432C5.08213 2.87432 4.247 3.70969 4.247 4.74017C4.247 5.77065 5.08213 6.60601 6.11233 6.60601ZM4.18331 7.53894C3.53169 7.53894 3.00345 8.06733 3.00345 8.71913C3.00345 9.77301 3.7205 10.6916 4.74262 10.9472L4.81601 10.9656C5.66712 11.1784 6.55753 11.1784 7.40865 10.9656L7.48203 10.9472C8.50416 10.6916 9.22121 9.77301 9.22121 8.71913C9.22121 8.06733 8.69296 7.53894 8.04134 7.53894H4.18331Z" fill="#252525"/>
</svg>
