<svg width="19" height="19" viewBox="0 0 19 19" fill="none" xmlns="http://www.w3.org/2000/svg">
<path d="M14.0399 16H13.9549C4.12992 15.435 2.73492 7.145 2.53992 4.615C2.52421 4.41829 2.54746 4.22041 2.60836 4.03271C2.66925 3.845 2.76658 3.67115 2.89478 3.52113C3.02297 3.3711 3.17951 3.24784 3.35542 3.15842C3.53134 3.069 3.72317 3.01516 3.91992 3H6.67492C6.8752 2.99981 7.07092 3.05976 7.23673 3.17208C7.40255 3.28441 7.53082 3.44394 7.60492 3.63L8.36492 5.5C8.43809 5.68177 8.45625 5.88104 8.41714 6.07305C8.37803 6.26505 8.28337 6.44134 8.14492 6.58L7.07992 7.655C7.24628 8.60037 7.69901 9.47183 8.37687 10.1515C9.05472 10.8311 9.92499 11.2862 10.8699 11.455L11.9549 10.38C12.0957 10.2431 12.2736 10.1506 12.4666 10.1142C12.6595 10.0777 12.8589 10.0989 13.0399 10.175L14.9249 10.93C15.1082 11.0064 15.2645 11.1357 15.3741 11.3013C15.4836 11.467 15.5413 11.6614 15.5399 11.86V14.5C15.5399 14.8978 15.3819 15.2794 15.1006 15.5607C14.8193 15.842 14.4377 16 14.0399 16ZM4.03992 4C3.90731 4 3.78013 4.05268 3.68637 4.14645C3.5926 4.24022 3.53992 4.36739 3.53992 4.5V4.54C3.76992 7.5 5.24492 14.5 14.0099 15C14.0756 15.0041 14.1414 14.9951 14.2037 14.9737C14.2659 14.9522 14.3233 14.9187 14.3725 14.875C14.4217 14.8314 14.4619 14.7784 14.4906 14.7192C14.5193 14.66 14.5361 14.5957 14.5399 14.53V11.86L12.6549 11.105L11.2199 12.53L10.9799 12.5C6.62992 11.955 6.03992 7.605 6.03992 7.56L6.00992 7.32L7.42992 5.885L6.67992 4H4.03992Z" fill="black"/>
</svg>
