<svg width="32" height="31" viewBox="0 0 32 31" fill="none" xmlns="http://www.w3.org/2000/svg">
<path d="M15.0957 5.375H16.9121C17.0736 5.375 17.1543 5.45312 17.1543 5.60938V26.2344C17.1543 26.3906 17.0736 26.4688 16.9121 26.4688H15.0957C14.9342 26.4688 14.8535 26.3906 14.8535 26.2344V5.60938C14.8535 5.45312 14.9342 5.375 15.0957 5.375Z" fill="black"/>
<path d="M5.83203 14.8086H26.1758C26.3372 14.8086 26.418 14.8867 26.418 15.043V16.8008C26.418 16.957 26.3372 17.0352 26.1758 17.0352H5.83203C5.67057 17.0352 5.58984 16.957 5.58984 16.8008V15.043C5.58984 14.8867 5.67057 14.8086 5.83203 14.8086Z" fill="black"/>
</svg>
