<svg width="36" height="21" viewBox="0 0 36 21" fill="none" xmlns="http://www.w3.org/2000/svg">
<path d="M8.92 3.84V5.12C8.58 4.68 8.12 4.34 7.56 4.1C6.98 3.86 6.34 3.72 5.66 3.72C4.72 3.72 3.88 3.98 3.12 4.46C2.32 4.96 1.7 5.64 1.24 6.48C0.78 7.34 0.56 8.34 0.56 9.44C0.56 10.56 0.78 11.56 1.24 12.4C1.72 13.3 2.34 13.96 3.1 14.42C3.88 14.9 4.72 15.14 5.62 15.14C6.3 15.14 6.94 15 7.52 14.72C7.58 14.68 7.66 14.64 7.72 14.6V11.84C7.68 11.86 7.66 11.86 7.66 11.88C7.28 12.08 6.88 12.18 6.48 12.18C6.1 12.18 5.7 12.08 5.32 11.88C4.96 11.66 4.64 11.36 4.4 10.96C4.16 10.56 4.04 10.06 4.04 9.44C4.04 8.84 4.16 8.34 4.4 7.92C4.64 7.52 4.94 7.22 5.32 7C5.68 6.8 6.06 6.68 6.48 6.68C6.88 6.68 7.28 6.8 7.66 7C8.02 7.2 8.32 7.5 8.56 7.92C8.8 8.32 8.92 8.82 8.92 9.42V20.32H12.32V3.84H8.92ZM19.7342 4.26C19.1342 4.62 18.6342 5.1 18.2342 5.7V3.84H14.8142V15H18.2342V9.82C18.2342 8.9 18.4342 8.26 18.8742 7.9C19.2942 7.54 19.9342 7.34 20.7942 7.34H21.7342V3.72C20.9942 3.72 20.3342 3.9 19.7342 4.26ZM34.5089 6.4C34.0489 5.52 33.4689 4.86 32.7289 4.4C31.9689 3.92 31.1289 3.68 30.2289 3.68C29.4489 3.68 28.7489 3.84 28.1489 4.16C27.5489 4.48 27.0889 4.9 26.7689 5.42V0.2H23.3489V15H26.7489V9.44C26.7489 8.6 26.9889 7.92 27.4689 7.42C27.9289 6.92 28.5089 6.68 29.1889 6.68C29.8889 6.68 30.4689 6.92 30.9489 7.4C31.4089 7.9 31.6489 8.56 31.6489 9.42C31.6489 10.28 31.4089 10.96 30.9289 11.44C30.4489 11.94 29.8689 12.2 29.1889 12.2C28.7089 12.2 28.3089 12.08 27.9489 11.86V14.6C28.0289 14.64 28.0889 14.68 28.1489 14.72C28.7489 15.02 29.4289 15.18 30.2289 15.18C31.1289 15.18 31.9489 14.94 32.7289 14.48C33.4689 14 34.0689 13.32 34.5089 12.46C34.9289 11.6 35.1489 10.6 35.1489 9.44C35.1489 8.26 34.9289 7.26 34.5089 6.4Z" fill="black"/>
</svg>
