<svg width="7" height="13" viewBox="0 0 7 13" fill="none" xmlns="http://www.w3.org/2000/svg">
<path d="M6.68203 6.50937C6.68242 6.70408 6.6146 6.89278 6.49037 7.04271L2.3237 12.0427C2.18225 12.2129 1.97899 12.3199 1.75864 12.3402C1.53828 12.3605 1.31888 12.2925 1.1487 12.151C0.978519 12.0096 0.871499 11.8063 0.851183 11.586C0.830866 11.3656 0.898917 11.1462 1.04037 10.976L4.7737 6.50937L1.1737 2.04271C1.10448 1.95747 1.05279 1.85939 1.02159 1.7541C0.990399 1.64882 0.980321 1.53841 0.991937 1.42922C1.00355 1.32003 1.03663 1.21421 1.08928 1.11785C1.14192 1.02148 1.21309 0.936475 1.2987 0.867705C1.38438 0.791389 1.48491 0.73359 1.59397 0.697929C1.70303 0.662269 1.81828 0.649516 1.9325 0.660469C2.04672 0.671421 2.15745 0.705843 2.25774 0.76158C2.35804 0.817315 2.44575 0.893165 2.51537 0.984373L6.54037 5.98437C6.64496 6.13861 6.69484 6.32346 6.68203 6.50937Z" fill="#F6F4F2"/>
</svg>
