<svg width="35" height="34" viewBox="0 0 35 34" fill="none" xmlns="http://www.w3.org/2000/svg">
<path d="M23.4425 18.1228H18.9985V22.6768H16.6665V18.1228H12.2225V16.0108H16.6665V11.4568H18.9985V16.0108H23.4425V18.1228Z" fill="black"/>
<path d="M33.6877 10.4955C34.2479 11.8448 34.639 13.282 34.8347 14.7805L34.3389 14.8452C34.431 15.5502 34.4785 16.2694 34.4785 17C34.4785 17.7305 34.431 18.4497 34.3389 19.1547L34.8347 19.2195C34.639 20.718 34.2479 22.1551 33.6877 23.5045L33.2259 23.3127C32.6695 24.653 31.9411 25.9042 31.0681 27.0389L31.4644 27.3438C30.5591 28.5204 29.5032 29.5751 28.3253 30.4792L28.0209 30.0826C26.8854 30.9542 25.6334 31.6813 24.2924 32.2367L24.4838 32.6987C23.1341 33.2577 21.6967 33.648 20.198 33.8433L20.1334 33.3475C19.4284 33.4394 18.7091 33.4868 17.9785 33.4868C17.2479 33.4868 16.5287 33.4394 15.8236 33.3475L15.759 33.8433C14.2603 33.648 12.8229 33.2577 11.4733 32.6987L11.6646 32.2367C10.3236 31.6813 9.07164 30.9542 7.93616 30.0826L7.63172 30.4792C6.45386 29.5751 5.39789 28.5204 4.49267 27.3438L4.88896 27.0389C4.01597 25.9042 3.28758 24.653 2.73116 23.3127L2.26938 23.5045C1.70917 22.1551 1.31801 20.718 1.12232 19.2195L1.61811 19.1547C1.52604 18.4497 1.47852 17.7305 1.47852 17C1.47852 16.2694 1.52604 15.5502 1.61811 14.8452L1.12232 14.7805C1.31801 13.282 1.70917 11.8448 2.26938 10.4955L2.73116 10.6872C3.28758 9.34698 4.01597 8.09575 4.88896 6.96104L4.49267 6.65616C5.39789 5.47957 6.45386 4.4248 7.63171 3.52072L7.93615 3.91735C9.07164 3.04579 10.3236 2.31863 11.6646 1.7632L11.4733 1.30126C12.8229 0.742227 14.2603 0.351915 15.759 0.156651L15.8236 0.65246C16.5287 0.560598 17.2479 0.513184 17.9785 0.513184C18.7091 0.513184 19.4284 0.560598 20.1334 0.65246L20.198 0.156651C21.6967 0.351915 23.1341 0.742227 24.4838 1.30126L24.2924 1.7632C25.6334 2.31863 26.8854 3.04579 28.0209 3.91735L28.3253 3.52072C29.5032 4.4248 30.5591 5.47957 31.4644 6.65616L31.0681 6.96104C31.9411 8.09575 32.6695 9.34698 33.2259 10.6872L33.6877 10.4955Z" stroke="black" stroke-dasharray="4 4"/>
</svg>
