<svg width="18" height="18" viewBox="0 0 18 18" fill="none" xmlns="http://www.w3.org/2000/svg">
<path d="M3 1.5C2.17157 1.5 1.5 2.17157 1.5 3V15C1.5 15.8284 2.17157 16.5 3 16.5V11.25C3 10.0074 4.00736 9 5.25 9H12.75C13.9926 9 15 10.0074 15 11.25V16.5C15.8284 16.5 16.5 15.8284 16.5 15V5.43198C16.5 5.03416 16.342 4.65263 16.0607 4.37132L13.6287 1.93934C13.3474 1.65804 12.9658 1.5 12.568 1.5H12V3.75C12 4.99264 10.9926 6 9.75 6H6.75C5.50736 6 4.5 4.99264 4.5 3.75V1.5H3ZM6 1.5V3.75C6 4.16421 6.33579 4.5 6.75 4.5H9.75C10.1642 4.5 10.5 4.16421 10.5 3.75V1.5H6ZM13.5 16.5V11.25C13.5 10.8358 13.1642 10.5 12.75 10.5H5.25C4.83579 10.5 4.5 10.8358 4.5 11.25V16.5H13.5ZM0 3C0 1.34315 1.34315 0 3 0H12.568C13.3637 0 14.1267 0.316071 14.6893 0.87868L17.1213 3.31066C17.6839 3.87327 18 4.63633 18 5.43198V15C18 16.6569 16.6569 18 15 18H3C1.34315 18 0 16.6569 0 15V3Z" fill="#212121"/>
</svg>
