<svg width="35" height="36" viewBox="0 0 35 36" fill="none" xmlns="http://www.w3.org/2000/svg">
<path d="M13.125 8.375V13.625H7.875V8.375H13.125ZM15.75 5.75H5.25V16.25H15.75V5.75ZM13.125 22.375V27.625H7.875V22.375H13.125ZM15.75 19.75H5.25V30.25H15.75V19.75ZM27.125 8.375V13.625H21.875V8.375H27.125ZM29.75 5.75H19.25V16.25H29.75V5.75ZM19.25 19.75H21.875V22.375H19.25V19.75ZM21.875 22.375H24.5V25H21.875V22.375ZM24.5 19.75H27.125V22.375H24.5V19.75ZM19.25 25H21.875V27.625H19.25V25ZM21.875 27.625H24.5V30.25H21.875V27.625ZM24.5 25H27.125V27.625H24.5V25ZM27.125 22.375H29.75V25H27.125V22.375ZM27.125 27.625H29.75V30.25H27.125V27.625ZM35 9.25H31.5V4H26.25V0.5H35V9.25ZM35 35.5V26.75H31.5V32H26.25V35.5H35ZM0 35.5H8.75V32H3.5V26.75H0V35.5ZM0 0.5V9.25H3.5V4H8.75V0.5H0Z" fill="#F6F4F2"/>
</svg>
