<svg width="18" height="18" viewBox="0 0 18 18" fill="none" xmlns="http://www.w3.org/2000/svg">
<path d="M7.20015 0C3.22362 0 0 3.22362 0 7.20015C0 11.1767 3.22362 14.4003 7.20015 14.4003C8.86369 14.4003 10.3955 13.8361 11.6146 12.8887L16.4623 17.7364C16.8137 18.0879 17.3836 18.0879 17.7351 17.7364C18.0865 17.3849 18.0865 16.8151 17.7351 16.4636L12.8876 11.6161C13.8357 10.3967 14.4003 8.86436 14.4003 7.20015C14.4003 3.22362 11.1767 0 7.20015 0ZM1.80004 7.20015C1.80004 4.21775 4.21775 1.80004 7.20015 1.80004C10.1825 1.80004 12.6003 4.21775 12.6003 7.20015C12.6003 10.1825 10.1825 12.6003 7.20015 12.6003C4.21775 12.6003 1.80004 10.1825 1.80004 7.20015Z" fill="#252525"/>
</svg>
