<svg width="24" height="12" viewBox="0 0 24 12" fill="none" xmlns="http://www.w3.org/2000/svg">
<path d="M0.740929 2.10844H22.9693C23.3784 2.10844 23.7103 1.6361 23.7103 1.05422C23.7103 0.472252 23.3783 0 22.9693 0H0.740929C0.331909 0 0 0.472339 0 1.05422C0 1.6361 0.331971 2.10844 0.740929 2.10844Z" fill="black"/>
<path d="M23.1289 4.76465H5.67646C5.35532 4.76465 5.09473 5.23699 5.09473 5.81887C5.09473 6.40075 5.35537 6.87308 5.67646 6.87308H23.1289C23.4501 6.87308 23.7106 6.40075 23.7106 5.81887C23.7106 5.23699 23.4501 4.76465 23.1289 4.76465Z" fill="black"/>
<path d="M23.058 9.5293H10.0098C9.64967 9.5293 9.35742 10.0016 9.35742 10.5835C9.35742 11.1655 9.64972 11.6377 10.0098 11.6377H23.058C23.4182 11.6377 23.7104 11.1654 23.7104 10.5835C23.7105 10.0015 23.4182 9.5293 23.058 9.5293Z" fill="black"/>
</svg>
