<svg width="12" height="15" viewBox="0 0 12 15" fill="none" xmlns="http://www.w3.org/2000/svg">
<path d="M1.67179 5H10.4508L9.9259 13.3437C9.90188 13.7247 9.73252 14.0823 9.45232 14.3435C9.17212 14.6048 8.80216 14.7502 8.41781 14.75H3.70549C3.32114 14.7502 2.95118 14.6048 2.67098 14.3435C2.39078 14.0823 2.22142 13.7247 2.19739 13.3437L1.67179 5ZM11.3479 2.75V4.25H0.775391V2.75H3.04093V2C3.04093 1.60218 3.20006 1.22064 3.4833 0.93934C3.76655 0.658035 4.15072 0.5 4.55129 0.5H7.57201C7.97258 0.5 8.35675 0.658035 8.63999 0.93934C8.92324 1.22064 9.08237 1.60218 9.08237 2V2.75H11.3479ZM4.55129 2.75H7.57201V2H4.55129V2.75Z" fill="#252525"/>
</svg>
