<svg width="24" height="24" viewBox="0 0 24 24" fill="none" xmlns="http://www.w3.org/2000/svg">
<path fill-rule="evenodd" clip-rule="evenodd" d="M12.9366 0.390685C12.4083 -0.132511 11.5519 -0.130408 11.021 0.398136L4.70193 6.68967C3.67526 7.69562 5.21473 9.20401 6.2414 8.19806L10.5288 3.99358C10.7399 3.78662 10.911 3.85928 10.911 4.15278V15.7528C10.911 16.3434 11.3942 16.8221 11.9997 16.8221C12.601 16.8221 13.0884 16.3444 13.0884 15.7528V4.15278C13.0884 3.8579 13.2601 3.78725 13.4705 3.99358L17.758 8.19806C18.7841 9.20401 20.3241 7.69562 19.2974 6.68967L12.9366 0.390685Z" fill="black"/>
<path fill-rule="evenodd" clip-rule="evenodd" d="M21.8182 21.3348C21.8182 21.6285 21.5699 21.8665 21.2725 21.8665H2.7275C2.42613 21.8665 2.18182 21.6249 2.18182 21.3348V17.5999C2.18182 17.0108 1.6934 16.5332 1.09091 16.5332C0.488417 16.5332 0 17.0108 0 17.5999V22.4023C0 23.2827 0.73823 23.9999 1.64115 23.9999H22.3589C23.2633 23.9999 24 23.2879 24 22.4023V17.5999C24 17.0108 23.5116 16.5332 22.9091 16.5332C22.3066 16.5332 21.8182 17.0108 21.8182 17.5999V21.3348Z" fill="black"/>
</svg>
