<svg width="12" height="12" viewBox="0 0 12 12" fill="none" xmlns="http://www.w3.org/2000/svg">
<path d="M6.00098 12.0005C9.31468 12.0005 12.001 9.3142 12.001 6.00049C12.001 2.68678 9.31468 0.000488281 6.00098 0.000488281C2.68727 0.000488281 0.000976562 2.68678 0.000976562 6.00049C0.000976562 9.3142 2.68727 12.0005 6.00098 12.0005ZM6.00098 1.00049C6.37469 1.00049 6.87641 1.35657 7.31356 2.3183C7.40828 2.52668 7.49546 2.75494 7.57363 3.00049H4.42832C4.5065 2.75494 4.59368 2.52668 4.68839 2.3183C5.12554 1.35657 5.62726 1.00049 6.00098 1.00049ZM3.77803 1.9045C3.62712 2.23649 3.49526 2.60428 3.38509 3.00049H2.00061C2.52438 2.30318 3.22623 1.74726 4.03863 1.40026C3.94384 1.56165 3.85694 1.73089 3.77803 1.9045ZM3.16396 4.00049C3.05792 4.62799 3.00098 5.30194 3.00098 6.00049C3.00098 6.69903 3.05792 7.37299 3.16396 8.00049H1.41702C1.14942 7.38803 1.00098 6.71159 1.00098 6.00049C1.00098 5.28938 1.14942 4.61295 1.41702 4.00049H3.16396ZM3.38509 9.00049C3.49526 9.39669 3.62712 9.76448 3.77803 10.0965C3.85694 10.2701 3.94384 10.4393 4.03863 10.6007C3.22623 10.2537 2.52438 9.6978 2.00061 9.00049H3.38509ZM4.42832 9.00049H7.57363C7.49546 9.24603 7.40828 9.4743 7.31356 9.68267C6.87641 10.6444 6.37469 11.0005 6.00098 11.0005C5.62726 11.0005 5.12554 10.6444 4.68839 9.68267C4.59368 9.4743 4.5065 9.24603 4.42832 9.00049ZM7.82232 8.00049H4.17964C4.06536 7.38969 4.00098 6.71445 4.00098 6.00049C4.00098 5.28653 4.06536 4.61129 4.17964 4.00049H7.82232C7.9366 4.61129 8.00098 5.28653 8.00098 6.00049C8.00098 6.71445 7.9366 7.38969 7.82232 8.00049ZM8.61686 9.00049H10.0013C9.47757 9.6978 8.77573 10.2537 7.96332 10.6007C8.05811 10.4393 8.14501 10.2701 8.22393 10.0965C8.37483 9.76448 8.50669 9.39669 8.61686 9.00049ZM10.5849 8.00049H8.83799C8.94404 7.37299 9.00098 6.69903 9.00098 6.00049C9.00098 5.30194 8.94404 4.62799 8.83799 4.00049H10.5849C10.8525 4.61295 11.001 5.28938 11.001 6.00049C11.001 6.71159 10.8525 7.38803 10.5849 8.00049ZM7.96332 1.40026C8.77572 1.74726 9.47757 2.30318 10.0013 3.00049H8.61686C8.50669 2.60428 8.37483 2.23649 8.22393 1.9045C8.14501 1.73089 8.05811 1.56165 7.96332 1.40026Z" fill="#212121"/>
</svg>
