<svg width="19" height="19" viewBox="0 0 19 19" fill="none" xmlns="http://www.w3.org/2000/svg">
<path d="M1.6582 10C1.6582 8.14348 2.3957 6.36301 3.70846 5.05025C5.02121 3.7375 6.80169 3 8.6582 3C10.5147 3 12.2952 3.7375 13.608 5.05025C14.9207 6.36301 15.6582 8.14348 15.6582 10C15.6582 11.8565 14.9207 13.637 13.608 14.9497C12.2952 16.2625 10.5147 17 8.6582 17C6.80169 17 5.02121 16.2625 3.70846 14.9497C2.3957 13.637 1.6582 11.8565 1.6582 10ZM8.2207 3.94238C7.63445 4.12088 7.05258 4.65987 6.56958 5.5655C6.41044 5.86658 6.27358 6.17892 6.16008 6.5H8.2207V3.94238ZM5.23695 6.5C5.38279 6.03522 5.57022 5.58452 5.79695 5.15337C5.94825 4.8673 6.12297 4.59424 6.31933 4.337C5.23521 4.7866 4.30246 5.53717 3.63133 6.5H5.23695ZM4.7277 9.5625C4.75395 8.79513 4.84845 8.05925 5.0007 7.375H3.12295C2.79668 8.06192 2.60199 8.80388 2.54895 9.5625H4.7277ZM5.89933 7.375C5.72723 8.09233 5.62814 8.82523 5.60358 9.5625H8.2207V7.375H5.89933ZM9.0957 7.375V9.5625H11.712C11.6877 8.82525 11.5889 8.09235 11.4171 7.375H9.0957ZM5.60445 10.4375C5.62873 11.1747 5.72752 11.9076 5.89933 12.625H8.2207V10.4375H5.60445ZM9.0957 10.4375V12.625H11.4171C11.5807 11.9556 11.6848 11.218 11.7128 10.4375H9.0957ZM6.16008 13.5C6.28083 13.8378 6.4182 14.151 6.56958 14.4345C7.05258 15.3401 7.63533 15.8783 8.2207 16.0576V13.5H6.16008ZM6.31933 15.663C6.12296 15.4058 5.94823 15.1327 5.79695 14.8466C5.57022 14.4155 5.3828 13.9648 5.23695 13.5H3.63133C4.30242 14.4629 5.23518 15.2134 6.31933 15.663ZM5.0007 12.625C4.84247 11.9058 4.75108 11.1735 4.7277 10.4375H2.54895C2.6032 11.2163 2.80358 11.9539 3.12295 12.625H5.0007ZM10.9971 15.663C12.0812 15.2134 13.014 14.4629 13.6851 13.5H12.0795C11.9336 13.9648 11.7462 14.4155 11.5195 14.8466C11.3682 15.1327 11.1935 15.4058 10.9971 15.663ZM9.0957 13.5V16.0576C9.68195 15.8791 10.2638 15.3401 10.7468 14.4345C10.8982 14.151 11.0356 13.8378 11.1563 13.5H9.0957ZM12.3157 12.625H14.1935C14.5128 11.9539 14.7132 11.2163 14.7675 10.4375H12.5887C12.5653 11.1735 12.4739 11.9058 12.3157 12.625ZM14.7675 9.5625C14.7144 8.80389 14.5197 8.06193 14.1935 7.375H12.3157C12.468 8.05925 12.5625 8.79513 12.5887 9.5625H14.7675ZM11.5195 5.15337C11.7356 5.55938 11.9237 6.01087 12.0795 6.5H13.6851C13.014 5.53714 12.0812 4.78656 10.9971 4.337C11.1878 4.5855 11.3628 4.86025 11.5195 5.15337ZM11.1563 6.5C11.0428 6.17891 10.906 5.86658 10.7468 5.5655C10.2638 4.65987 9.68195 4.12175 9.0957 3.94238V6.5H11.1563Z" fill="black"/>
</svg>
