<svg width="16" height="21" viewBox="0 0 16 21" fill="none" xmlns="http://www.w3.org/2000/svg">
<path d="M15.6305 16.1887C15.513 16.9962 13.8661 19.0925 13.108 19.395C12.8473 19.4956 12.5998 19.4731 12.3986 19.32C12.2717 19.2193 12.138 19.0137 10.3611 16.13L9.83358 15.2706C9.62858 14.9612 9.66733 14.5543 9.9217 14.245C10.1692 13.9456 10.5305 13.835 10.8461 13.955C10.8623 13.965 12.1773 14.3943 12.1773 14.3943C15.1655 15.3775 15.2636 15.4162 15.3905 15.5106C15.5792 15.6668 15.6673 15.9075 15.628 16.1875L15.6305 16.1887ZM9.64108 11.8006C9.42608 11.4781 9.43295 11.0975 9.65108 10.8368L10.4811 9.70372C12.3042 7.21685 12.408 7.08622 12.5317 6.99872C12.7436 6.8556 13.0067 6.84872 13.2573 6.97247C13.9798 7.32435 15.4417 9.49497 15.5292 10.3287V10.3581C15.5555 10.6412 15.4411 10.8725 15.243 11.0125C15.1061 11.1006 14.9792 11.1493 11.5811 11.9762C11.0442 12.1131 10.7442 12.1881 10.5686 12.25L10.5911 12.2237C10.2561 12.3243 9.8817 12.1618 9.6667 11.8268L9.64108 11.8006ZM7.55108 10.5118C7.3917 10.5606 6.8967 10.7137 6.28795 9.7306C6.28795 9.7306 2.1767 3.26247 2.08233 3.06372C2.02358 2.83935 2.09233 2.58498 2.2942 2.37998C2.90608 1.74498 6.22295 0.817475 7.09233 1.02935C7.37545 1.10435 7.57108 1.27998 7.6392 1.53373C7.69108 1.81373 8.09483 7.8131 8.15358 9.15747C8.2092 10.3068 7.7142 10.4631 7.55108 10.5118ZM8.09483 17.0875C8.08483 20.2318 8.07858 20.3393 8.0267 20.4893C7.94233 20.7206 7.74045 20.88 7.46045 20.9287C6.65983 21.0656 4.1567 20.1412 3.63233 19.5225C3.5317 19.3856 3.46983 19.2487 3.4567 19.1093C3.44313 19.0121 3.45676 18.913 3.49608 18.8231C3.55795 18.6606 3.64608 18.5331 5.89545 15.8968L6.55608 15.1125C6.7842 14.8225 7.18108 14.735 7.55545 14.8843C7.91983 15.0212 8.14483 15.3337 8.11858 15.6718V17.0718L8.09483 17.0875ZM1.27483 15.0756C1.03045 15.0693 0.809204 14.9193 0.679204 14.675C0.587954 14.4962 0.522954 14.2031 0.480454 13.8418C0.366704 12.7581 0.506704 11.1206 0.832329 10.6031C0.982329 10.3656 1.2067 10.2387 1.45108 10.2481C1.61358 10.2481 1.76045 10.2968 4.9767 11.6218L5.91733 11.9962C6.25608 12.1231 6.4642 12.4712 6.44483 12.8718C6.41858 13.2593 6.1942 13.5587 5.86545 13.6468L4.52733 14.0731C1.53608 15.0368 1.43483 15.0593 1.27858 15.0462L1.27483 15.0756ZM13.7555 20.9968H13.7523L13.7492 21L13.7555 20.9968Z" fill="black"/>
</svg>
