<svg width="22" height="16" viewBox="0 0 22 16" fill="none" xmlns="http://www.w3.org/2000/svg">
<path d="M21.5391 8.06601C21.5391 8.11758 21.5391 8.17617 21.5367 8.24414C21.5344 8.43398 21.5297 8.64726 21.525 8.87461C21.5063 9.52851 21.4734 10.1801 21.4219 10.7941C21.3516 11.6402 21.2484 12.3457 21.1078 12.8754C20.9594 13.4282 20.6685 13.9323 20.2642 14.3374C19.8599 14.7426 19.3564 15.0345 18.8039 15.184C18.1406 15.3621 16.8422 15.4723 15.0141 15.5402C14.1445 15.573 13.2141 15.5941 12.2836 15.6059C11.9578 15.6105 11.6555 15.6129 11.3836 15.6152H10.6945C10.4227 15.6129 10.1203 15.6105 9.79453 15.6059C8.86406 15.5941 7.93359 15.573 7.06406 15.5402C5.23594 15.4699 3.93516 15.3598 3.27422 15.184C2.72156 15.0348 2.21782 14.743 1.81346 14.3379C1.40911 13.9327 1.11834 13.4283 0.970313 12.8754C0.827344 12.3457 0.726562 11.6402 0.65625 10.7941C0.604687 10.1801 0.571875 9.52851 0.553125 8.87461C0.546094 8.64726 0.54375 8.43398 0.541406 8.24414C0.541406 8.17617 0.539063 8.11758 0.539063 8.06601V7.93476C0.539063 7.8832 0.539062 7.82461 0.541406 7.75664C0.54375 7.5668 0.548437 7.35351 0.553125 7.12617C0.571875 6.47226 0.604687 5.8207 0.65625 5.20664C0.726562 4.36055 0.829688 3.65508 0.970313 3.12539C1.27031 2.00273 2.15156 1.11679 3.27422 0.816794C3.93516 0.638669 5.23594 0.528514 7.06406 0.460545C7.93359 0.427732 8.86406 0.406637 9.79453 0.394918C10.1203 0.390231 10.4227 0.387887 10.6945 0.385543H11.3836C11.6555 0.387887 11.9578 0.390231 12.2836 0.394918C13.2141 0.406637 14.1445 0.427732 15.0141 0.460545C16.8422 0.530857 18.143 0.641013 18.8039 0.816794C19.9266 1.11679 20.8078 2.00039 21.1078 3.12539C21.2508 3.65508 21.3516 4.36055 21.4219 5.20664C21.4734 5.8207 21.5063 6.47226 21.525 7.12617C21.532 7.35351 21.5344 7.5668 21.5367 7.75664C21.5367 7.82461 21.5391 7.8832 21.5391 7.93476V8.06601ZM19.8516 7.94414C19.8516 7.89492 19.8516 7.84101 19.8492 7.77773C19.8469 7.59492 19.8422 7.39336 19.8375 7.17539C19.8211 6.55195 19.7883 5.92851 19.7391 5.34961C19.6758 4.59492 19.5867 3.97617 19.4766 3.56133C19.3312 3.01992 18.9047 2.59101 18.3656 2.44804C17.8734 2.31679 16.6336 2.21133 14.9484 2.14805C14.0953 2.11523 13.1766 2.09414 12.2602 2.08242C11.9391 2.07773 11.6414 2.07539 11.3742 2.07539H10.7039L9.81797 2.08242C8.90156 2.09414 7.98516 2.11523 7.12969 2.14805C5.44453 2.21367 4.20234 2.31679 3.7125 2.44804C3.17344 2.59336 2.74688 3.01992 2.60156 3.56133C2.49141 3.97617 2.40234 4.59492 2.33906 5.34961C2.28984 5.92851 2.25938 6.55195 2.24063 7.17539C2.23359 7.39336 2.23125 7.59726 2.22891 7.77773C2.22891 7.84101 2.22656 7.89726 2.22656 7.94414V8.05664C2.22656 8.10586 2.22656 8.15976 2.22891 8.22305C2.23125 8.40586 2.23594 8.60742 2.24063 8.82539C2.25703 9.44883 2.28984 10.0723 2.33906 10.6512C2.40234 11.4059 2.49141 12.0246 2.60156 12.4395C2.74688 12.9809 3.17344 13.4098 3.7125 13.5527C4.20469 13.684 5.44453 13.7895 7.12969 13.8527C7.98281 13.8855 8.90156 13.9066 9.81797 13.9184C10.1391 13.923 10.4367 13.9254 10.7039 13.9254H11.3742L12.2602 13.9184C13.1766 13.9066 14.093 13.8855 14.9484 13.8527C16.6336 13.7871 17.8758 13.684 18.3656 13.5527C18.9047 13.4074 19.3312 12.9809 19.4766 12.4395C19.5867 12.0246 19.6758 11.4059 19.7391 10.6512C19.7883 10.0723 19.8188 9.44883 19.8375 8.82539C19.8445 8.60742 19.8469 8.40351 19.8492 8.22305C19.8492 8.15976 19.8516 8.10351 19.8516 8.05664V7.94414ZM8.95312 4.85976L14.3906 8.02383L8.95312 11.141V4.85976Z" fill="black"/>
</svg>
